<svg width="22" height="26" viewBox="0 0 22 26" fill="none" xmlns="http://www.w3.org/2000/svg">
<path d="M7.52806 25.3548C3.83132 25.3335 0.773438 17.7872 0.773438 13.9441C0.773438 7.66628 5.48285 6.2919 7.29782 6.2919C8.11575 6.2919 8.98913 6.6131 9.75947 6.89734C10.2982 7.09562 10.8553 7.30029 11.1651 7.30029C11.3506 7.30029 11.7877 7.12618 12.1735 6.97341C12.9965 6.6458 14.0205 6.23863 15.2129 6.23863C15.2151 6.23863 15.2179 6.23863 15.22 6.23863C16.1104 6.23863 18.8102 6.43404 20.4333 8.87154C20.6466 9.19204 20.5736 9.62388 20.2663 9.85577C19.4846 10.4456 18.0583 11.5215 18.0583 13.6527C18.0583 16.1769 19.6736 17.1477 20.4496 17.6146C20.7922 17.8207 21.1468 18.0331 21.1468 18.4979C21.1468 18.8013 18.7249 25.3172 15.2079 25.3172C14.3474 25.3172 13.739 25.0585 13.2025 24.8304C12.6596 24.5994 12.1912 24.4005 11.4174 24.4005C11.0251 24.4005 10.529 24.586 10.0039 24.7828C9.28623 25.0507 8.47392 25.3548 7.55222 25.3548H7.52806Z" fill="white"/>
<path d="M15.5863 0.516129C15.6779 3.81871 13.3161 6.10988 10.957 5.96619C10.5682 3.33062 13.3158 0.516129 15.5863 0.516129Z" fill="white"/>
</svg>
