<svg width="124" height="203" viewBox="0 0 124 203" fill="none" xmlns="http://www.w3.org/2000/svg">
<path d="M123.461 183.096C120.342 169.813 117.776 156.204 115.832 142.65L115.779 142.314C115.174 138.044 114.538 133.624 112.413 129.681C110.069 125.346 105.789 121.602 100.366 119.134C99.8285 118.888 99.279 118.654 98.7334 118.423C97.1175 117.736 95.5928 117.085 94.2842 116.126C93.0472 115.216 91.9964 114.003 90.986 112.831L76.9717 96.5899C76.4626 96.0039 75.8311 95.2708 74.9222 94.8828C74.0902 94.5234 73.2816 94.5195 72.5667 94.6524C72.348 92.2096 72.1462 89.7031 71.9639 87.1875C71.835 85.3958 71.7425 83.8763 71.8233 82.3633C71.8545 82.3307 71.891 82.3021 71.9196 82.2747C72.2751 83.2409 72.9378 84.1107 73.8272 84.6771C75.6136 85.8047 78.1306 85.8737 80.4027 84.8542C82.3376 83.9844 83.861 82.5052 85.2152 81.0365C90.404 75.4115 94.3688 68.905 98.3089 62.1719C99.6384 59.8867 101.146 57.2995 102.022 54.5013C103.11 51.0352 103.171 47.3672 103.102 44.5651C102.916 36.6432 101.44 30.1888 98.6006 24.8268C95.5446 19.0651 90.6553 14.526 85.1345 12.3151C83.5954 7.87109 80.5433 4.2474 76.7009 2.33464C71.9678 -0.0143229 65.7529 -0.0872397 58.2243 2.11979C56.4704 2.63021 54.7126 3.22396 53.0147 3.79948C49.0993 5.12109 45.0498 6.48698 40.9157 6.88411C38.3219 7.13021 36.2959 6.88932 34.7243 6.13932C33.9639 5.77604 33.2647 5.27865 32.5212 4.7487C31.5758 4.07812 30.5993 3.3776 29.4313 2.93359C26.8115 1.9375 23.5941 2.41927 21.0407 4.19531C18.9548 5.64714 17.3024 7.92057 16.2555 10.7695C14.3363 15.9622 14.8662 21.7044 17.6696 26.1341C18.6123 27.6172 19.8363 28.9674 21.2594 30.0951C21.4339 30.2331 21.6071 30.3672 21.7894 30.4961C21.7555 30.7148 21.7282 30.9323 21.7008 31.1549C20.973 36.8685 20.3662 42.8906 20.8428 48.8346C21.3688 55.4544 23.292 61.4036 26.4196 66.0703C26.4678 67.1016 26.5524 68.1406 26.6748 69.1719C27.236 73.9635 28.9743 80.6771 34.0576 85.4284C36.1839 87.418 38.762 88.9258 41.7321 89.9128L41.8037 98.5143C40.0186 99.2591 38.2412 100.003 36.4417 100.747C35.6904 101.066 34.8376 101.422 34.1436 102.061C33.1566 102.983 32.7647 104.212 32.4209 105.296L32.3245 105.599C30.2777 111.867 25.3558 117.346 19.1462 120.259C18.5967 120.517 18.0068 120.772 17.4391 121.014C15.0876 122.034 12.6514 123.09 11.0433 125.168C9.82584 126.753 9.31803 128.682 8.90917 130.238C3.72037 150.066 0.867503 170.471 0.430003 190.889C0.419586 191.31 0.668284 191.694 1.0537 191.848C6.18521 193.939 11.443 195.721 16.7933 197.186C17.4886 197.38 18.193 197.566 18.8909 197.743C27.4873 199.96 36.3089 201.363 45.1904 201.93C45.9951 201.986 46.8076 202.03 47.6201 202.066C49.8259 202.172 52.0407 202.224 54.2516 202.224C58.2516 202.224 62.2569 202.055 66.2412 201.711C77.2868 200.76 88.2543 198.471 98.7738 194.949C99.4209 194.74 100.067 194.521 100.706 194.29C108.429 191.585 115.904 188.212 122.977 184.217C123.369 183.999 123.567 183.538 123.461 183.096Z" fill="#0F0E0C"/>
<path d="M37.1735 51.7669C37.1735 53.987 36.3571 55.7864 35.3467 55.7864C34.3363 55.7864 33.5159 53.987 33.5159 51.7669C33.5159 49.5469 34.3363 47.7474 35.3467 47.7474C36.3571 47.7474 37.1735 49.5469 37.1735 51.7669ZM36.5068 43.1133C33.8063 43.1133 31.6201 44.1328 31.6201 42.082C31.6201 40.0312 33.8063 38.3698 36.5068 38.3698C39.2021 38.3698 41.3883 40.0312 41.3883 42.082C41.3883 44.1328 39.2021 43.1133 36.5068 43.1133ZM40.374 63.1992C40.374 61.2943 41.137 59.1393 41.7152 57.3555C42.4027 55.2448 43.2633 53.2226 44.4391 51.3503C44.6449 51.0234 45.5303 51.0716 45.3402 51.5612C44.1279 54.6914 42.9561 57.7969 42.3818 61.1289C42.2568 61.8359 41.9092 63.1432 42.4261 63.7617C42.8232 64.2266 43.8337 64.4284 44.3662 64.6146C45.6149 65.0469 46.8923 65.3945 48.1696 65.7383C49.0459 65.9779 48.4079 66.8711 47.7816 66.8867C45.5107 66.9401 40.374 66.3776 40.374 63.1992ZM59.3519 47.7474C60.3623 47.7474 61.1826 49.5469 61.1826 51.7669C61.1826 53.987 60.3623 55.7864 59.3519 55.7864C58.3415 55.7864 57.5251 53.987 57.5251 51.7669C57.5251 49.5469 58.3415 47.7474 59.3519 47.7474ZM47.3532 73.7331C52.4847 75.0768 56.3402 72.7148 59.5941 68.9049C60.1722 68.2253 61.8285 68.3789 61.4248 69.5482C59.4196 75.4036 51.7816 76.8229 46.6826 75.2174C45.5107 74.8503 46.3714 73.4792 47.3532 73.7331ZM54.5863 41.5273C54.5863 39.4792 56.7725 37.8151 59.4691 37.8151C62.1683 37.8151 64.3545 39.4792 64.3545 41.5273C64.3545 43.5781 62.1683 42.5586 59.4691 42.5586C56.7725 42.5586 54.5863 43.5781 54.5863 41.5273ZM80.7412 52.4948C79.8766 50.0117 85.1058 43.3958 87.2764 46.2591C87.3415 46.3437 87.292 46.4336 87.2152 46.4857C86.21 47.1445 85.1631 47.2982 84.3298 48.2969C83.6996 49.0495 81.5498 52.2812 83.5186 52.293C84.4522 52.2969 85.098 51.5247 86.1371 51.8919C86.723 52.0989 87.1266 52.4987 87.4053 53.0573C89.0225 56.3203 85.3897 60.3724 82.5759 61.2825C81.7647 61.5456 81.0407 60.5065 81.8128 59.9518C83.0134 59.095 84.1852 58.2578 84.904 56.9154C85.4613 55.8763 86.3024 53.5299 84.4313 53.793C82.9118 54.0078 81.417 54.444 80.7412 52.4948ZM100.355 192.276C98.6045 182.368 96.3415 172.526 94.2764 162.684C93.7503 160.164 92.9912 157.589 92.6878 155.033C92.3597 152.335 93.391 149.771 94.2881 147.284C95.9496 142.665 98.1319 138.327 100.338 133.967C100.532 133.579 99.9131 133.441 99.7152 133.725C96.8141 137.862 94.5472 142.488 92.6917 147.207C91.835 149.375 90.8688 151.697 90.8324 154.07C90.7959 156.561 91.5446 159.121 92.0134 161.547C94.0615 172.021 95.9001 182.587 98.2894 192.988C87.874 196.486 77.016 198.759 66.0798 199.697C59.8571 200.23 53.6045 200.34 47.3766 200.033C47.0498 197.793 46.5485 195.544 46.2256 193.393C45.6397 189.449 45.0615 185.512 44.4912 181.568C43.9092 177.492 43.3324 173.415 42.766 169.34C42.4508 167.083 42.2647 165.547 43.9548 163.937C44.0107 163.88 44.0719 163.828 44.1318 163.771C44.6488 163.314 45.167 162.866 45.6878 162.421C46.6462 161.595 47.611 160.779 48.5537 159.937C51.0381 157.717 53.4717 155.432 55.8402 153.076C56.4821 152.452 57.1162 151.814 57.7464 151.167C59.8285 149.055 61.8649 146.888 63.8454 144.676C68.5095 139.471 73.0225 134.02 76.4261 127.849C78.4261 124.214 80.0381 120.142 80.624 115.973C81.6748 115.059 82.7751 114.133 83.4574 113.016C84.3623 111.544 83.7842 110.177 82.96 108.823C80.4352 104.658 77.2386 100.99 73.6449 97.7578C73.4313 97.5638 73.124 97.5364 72.8454 97.6094C72.8128 97.3021 72.7842 96.9896 72.7568 96.6823C73.3141 96.5495 73.7542 96.5742 74.154 96.7474C74.6475 96.9583 75.0759 97.4505 75.4886 97.9284L89.499 114.168C89.5915 114.273 89.6813 114.379 89.7777 114.488C89.6279 114.682 89.5029 114.884 89.3975 115.091C88.9287 115.992 88.7881 117.031 88.5329 118.072C88.1371 119.697 87.7412 121.323 87.3089 122.94C86.5121 125.944 85.6436 128.928 84.7061 131.889C82.6449 131.221 80.5472 130.939 78.3454 131.04C77.8558 131.06 77.1891 131.408 77.3102 132.026C77.8558 134.784 78.4053 137.538 78.9509 140.297C79.2061 141.559 79.8766 143.402 79.3962 144.66C78.943 145.836 77.6136 146.723 76.749 147.568C73.1123 151.098 69.5915 154.745 66.1891 158.506C62.7256 162.332 59.3923 166.271 56.1865 170.318C54.5055 172.441 52.8571 174.589 51.2529 176.768C49.9925 178.483 48.8324 180.089 49.0785 182.32C49.2035 183.457 51.3454 182.992 51.1839 181.819C50.8128 179.113 54.0368 176.056 55.5602 174.062C57.0524 172.109 58.5759 170.181 60.1279 168.276C63.4613 164.184 66.9326 160.204 70.529 156.346C72.2829 154.466 74.0733 152.615 75.8884 150.79C77.4847 149.189 79.6384 147.66 80.8506 145.719C81.986 143.896 81.2386 141.849 80.8467 139.892C80.3584 137.461 79.8688 135.035 79.3792 132.604C81.2998 132.654 83.1305 133.03 84.9652 133.708C85.3441 133.85 86.0433 133.604 86.1696 133.178C87.1397 129.936 88.0407 126.672 88.8519 123.38C89.2803 121.646 89.693 119.902 90.0602 118.152C90.2595 117.206 90.5746 116.259 90.5212 115.329C91.3102 116.199 92.1462 117.044 93.1319 117.768C94.6188 118.863 96.3207 119.587 97.9691 120.286C98.503 120.513 99.0368 120.74 99.5576 120.979C104.593 123.271 108.546 126.708 110.679 130.66C112.636 134.279 113.241 138.513 113.827 142.609L113.875 142.941C115.787 156.302 118.309 169.712 121.365 182.818C114.676 186.547 107.632 189.712 100.355 192.276ZM19.0641 195.702C19.1618 193.902 19.1462 192.078 19.2139 190.319C19.3206 187.529 19.4079 184.742 19.5094 181.957C19.7113 176.246 19.9131 170.54 20.1162 164.831C20.2165 162.044 20.3141 159.258 20.4157 156.467C20.499 153.957 20.8154 151.328 20.5797 148.82C20.193 144.697 16.7087 141.816 13.0355 140.604C12.6917 140.491 11.9404 140.895 12.3649 141.292C13.8076 142.638 15.5745 143.552 16.874 145.068C18.7985 147.316 18.4873 150.135 18.3818 152.917C18.1956 158.094 18.0068 163.273 17.8154 168.451C17.6266 173.63 17.4404 178.806 17.2503 183.987C17.154 186.639 17.0485 189.296 16.9678 191.949C16.9352 192.988 16.8701 194.044 16.8258 195.103C11.9404 193.745 7.12662 192.118 2.4274 190.23C2.90396 170.21 5.72818 150.204 10.8206 130.76C11.2777 129.014 11.706 127.582 12.598 126.422C13.8883 124.747 15.9886 123.841 18.2113 122.879C18.7946 122.629 19.3922 122.37 19.973 122.095C20.8805 121.671 21.7659 121.193 22.6136 120.667C22.6852 122.212 22.9365 123.757 23.1227 125.285C23.292 126.628 23.2633 128.237 23.8415 129.495C24.2451 130.384 24.9521 130.935 25.7855 131.384C26.5016 131.763 28.736 132.26 28.9105 133.13C29.0798 134.004 27.3779 134.853 26.8896 135.419C26.3363 136.062 26.0602 136.729 26.1006 137.599C26.1826 139.266 27.1201 141.142 27.6357 142.719C28.2139 144.507 28.7881 146.289 29.3662 148.077C31.6019 154.96 33.8324 161.846 36.0628 168.729C38.3662 175.842 40.3792 183.15 43.0368 190.129C43.1423 190.392 43.3402 190.562 43.5785 190.655C43.6227 190.958 43.6683 191.258 43.7126 191.561C44.0199 193.664 44.3311 195.767 44.6462 197.866C44.7425 198.529 44.8272 199.204 44.9079 199.887C36.1761 199.305 27.512 197.901 19.0641 195.702ZM34.2034 106.238L34.3011 105.923C34.5993 104.993 34.8792 104.116 35.4769 103.557C35.9092 103.158 36.5355 102.898 37.1982 102.615C38.7412 101.977 40.2803 101.337 41.8245 100.69L41.8376 102.029C40.4508 102.288 39.0863 102.797 37.9183 103.473C37.6709 103.501 37.4443 103.598 37.3037 103.759C37.2503 103.824 37.1943 103.893 37.141 103.962C37.1175 103.974 37.1019 103.99 37.0758 104.007C36.9079 104.128 36.8298 104.257 36.8219 104.379C35.2868 106.44 34.3532 108.964 33.5212 111.383C32.499 114.371 31.5563 117.392 30.5706 120.392C30.3245 121.148 29.8558 122.062 30.1305 122.871C30.4443 123.764 31.693 124.496 32.3376 125.103C32.8532 125.589 33.3558 126.09 33.8402 126.599C34.1995 129.596 35.0003 132.617 35.6501 135.525C36.387 138.788 37.2269 142.031 38.0967 145.262C38.7751 147.762 39.4769 150.249 40.2256 152.719C40.3792 153.233 40.5316 153.746 40.6982 154.255C40.762 154.474 40.8324 154.693 40.8949 154.911L41.0889 155.517C41.1865 155.816 41.279 156.12 41.3805 156.419C41.7686 157.637 42.1644 158.85 42.568 160.055C42.7829 160.71 42.9769 161.389 43.2035 162.06C41.6436 163.387 40.262 164.842 40.3089 167.135C40.3792 170.775 41.2673 174.548 41.7803 178.147C41.8415 178.6 41.9092 179.057 41.9743 179.51C40.7022 175.741 39.3766 171.992 38.1488 168.24C35.8923 161.365 33.6409 154.491 31.387 147.616C30.8011 145.836 30.2191 144.053 29.6331 142.27C29.1318 140.741 27.9925 138.699 28.2829 137.113C28.5706 135.548 31.4795 134.611 30.874 132.686C30.2243 130.611 27.2568 130.745 25.9521 129.402C24.7959 128.21 24.7555 125.827 24.4365 124.279C24.1566 122.879 23.9131 121.464 23.499 120.102C28.5133 116.757 32.3896 111.786 34.2034 106.238ZM35.3949 83.9362C30.7568 79.6015 29.1644 73.3854 28.6357 68.9336C28.5133 67.862 28.4235 66.7695 28.3792 65.694C28.2347 62.6211 28.3597 59.4622 28.4769 56.4101C28.5381 54.8763 28.5941 53.2917 28.6227 51.7305C28.736 45.3945 28.3063 39.1914 27.8024 32.8815C33.1644 33.6263 38.7985 32.5417 43.5706 29.9427C44.7425 29.3073 45.8662 28.5781 46.9209 27.7539C47.5641 28.8867 48.5576 29.776 49.9352 29.862C50.5537 29.8971 51.1527 29.7318 51.693 29.4336C52.805 28.8138 53.4352 27.9492 54.5342 29.2318C55.4157 30.2526 55.6904 31.5599 57.2503 31.7305C57.9782 31.806 58.5394 31.5469 59.1501 31.1914C59.598 30.9323 59.9053 30.4479 60.3857 30.2461C61.2712 29.8815 62.1761 30.2734 62.9079 30.7552C63.236 30.974 63.7048 30.8802 64.0316 30.6419L64.0355 30.6471C68.5016 34.3867 69.1878 39.9844 68.9092 45.556C68.7634 48.5156 68.5095 51.5078 68.8766 54.4648C69.1436 56.595 69.7777 60.0325 71.8428 61.1693C77.2217 64.1211 78.6279 53.8411 79.3766 50.8815C80.1123 47.97 80.5355 43.97 82.9157 41.8997C86.2425 39.0091 89.7373 42.668 90.4417 46.0651C91.8962 53.1133 89.3545 63.0664 81.2347 64.1654C81.0902 64.1862 80.9561 64.2266 80.8311 64.2864C80.5928 64.1458 80.2295 64.138 80.0108 64.3034C77.0733 66.543 75.986 70.7213 76.572 74.3685C75.0928 76.2526 73.5602 77.9557 72.0003 79.4674L71.9964 79.4713C71.3988 80.0547 70.8206 80.5846 70.2308 81.0937C70.223 81.0937 70.2191 81.1015 70.2113 81.1055C67.2438 83.6862 64.0641 85.6914 60.7621 87.0703C55.1371 89.4193 48.4886 89.8359 42.9769 88.1901C40.0107 87.3008 37.4613 85.8698 35.3949 83.9362ZM61.7399 28.4049C61.2594 28.3659 60.7621 28.4049 60.2855 28.5273C59.5459 28.7135 59.0772 29.1901 58.4509 29.5352C57.1253 30.2539 56.9066 29.2109 56.2204 28.1641C55.5251 27.0963 54.5628 26.3672 53.2581 26.599C52.5589 26.72 52.1462 27.1159 51.5602 27.4766C51.3701 27.638 51.18 27.7995 50.9951 27.9609C50.1982 27.8607 49.4066 27.7591 48.6188 27.6536C48.3558 27.5156 48.1097 27.237 47.8831 26.9505C47.9235 26.918 47.9639 26.8815 48.0042 26.845C49.4912 25.5143 50.7881 23.9284 52.4378 22.793C54.8298 21.1471 57.5615 21.5156 59.5016 23.7187C60.6891 25.0664 61.0654 26.832 61.7399 28.4049ZM27.0264 30.9453C25.7581 30.5325 24.5329 29.9349 23.3896 29.1667C21.7477 28.0625 20.3467 26.6341 19.3311 25.0325C16.8701 21.1445 16.4105 16.0755 18.1032 11.4831C18.7373 9.76693 19.9495 7.40234 22.1566 5.86849C23.4912 4.94271 25.0784 4.45052 26.5824 4.45052C27.3376 4.45052 28.0693 4.57422 28.7399 4.83073C29.6722 5.1862 30.5068 5.77995 31.3949 6.40755C32.1722 6.96094 32.9704 7.53516 33.8923 7.97266C35.7829 8.8776 38.1436 9.18099 41.098 8.89844C45.4574 8.47786 49.6123 7.07422 53.6331 5.72005C55.3141 5.14974 57.0524 4.5638 58.7699 4.0612C65.818 2 71.5563 2.02734 75.8363 4.15495C79.279 5.86849 82.0069 9.16797 83.3441 13.2292C77.2581 13.9687 71.5928 19 69.3897 24.6198C69.055 25.4779 70.4456 25.7253 70.7764 25.0221C73.6774 18.8503 79.0212 16.2214 85.0746 14.4792C89.9001 16.6055 94.1514 20.6745 96.8662 25.7891C99.5459 30.8646 100.944 37.0195 101.127 44.6133C101.19 47.263 101.134 50.7083 100.14 53.8867C99.3324 56.4622 97.8858 58.9492 96.6084 61.1367C92.7282 67.7695 88.8285 74.1745 83.7816 79.6497C82.3792 81.1706 81.1345 82.319 79.6071 83.0026C77.9496 83.7461 76.0863 83.7305 74.874 82.9583C74.1058 82.4687 73.6058 81.5221 73.6292 80.6693C74.8545 79.4687 76.0537 78.1536 77.2308 76.7344C77.5576 77.3737 78.9313 76.9818 78.7738 76.2174C78.693 75.8333 78.6201 75.4492 78.5641 75.0599C78.4105 74.013 78.3532 72.9531 78.43 71.8984C78.4548 71.4492 78.5069 71.0039 78.5837 70.5599C78.8871 68.7969 79.6592 67.4492 80.4548 65.9935C80.6084 66.0742 80.8102 66.1068 81.0733 66.0794C86.8845 65.4648 91.0798 60.875 92.3975 55.2005C93.6214 49.9362 93.7022 41.1927 87.443 39.2604C84.9365 38.4844 82.322 39.4622 80.6123 41.431C78.4183 43.9544 77.9209 47.6875 77.1136 50.8372C76.5993 52.8437 76.1553 54.8646 75.6384 56.8711C75.529 57.2878 75.4313 57.7161 75.2699 58.112C74.7608 59.3503 74.8662 59.2734 73.5003 59.0911C71.8962 58.8724 72.6227 59.1797 72.0615 58.4036C71.6735 57.8659 71.4027 56.7096 71.2373 56.0299C70.3636 52.487 70.7881 48.8112 70.9261 45.2161C71.1357 39.6198 70.292 32.474 64.5003 30.056C64.4756 30.0482 64.4482 30.0404 64.4235 30.0312C64.4391 29.8581 64.3753 29.6758 64.2009 29.5013C64.0563 29.3594 63.9027 29.2318 63.7412 29.1172C63.9704 25.3971 60.7868 21.1641 57.4235 20.2214C53.3024 19.0729 50.2347 22.2461 47.5068 24.8802C42.0589 30.1523 34.5758 32.1016 27.3376 31.1198C27.2477 31.0417 27.1396 30.9818 27.0264 30.9453ZM26.6514 51.6953C26.6227 53.2357 26.5576 54.8086 26.5016 56.3294C26.486 56.7943 26.4652 57.263 26.4495 57.7318C26.4287 58.2018 26.4131 58.6745 26.4001 59.1471C26.3923 59.3984 26.3844 59.6497 26.3792 59.8997C26.3675 60.2682 26.3597 60.6354 26.3519 61.0078C26.3519 61.0924 26.348 61.1771 26.3519 61.263C26.3428 61.5052 26.3428 61.7526 26.3389 61.9948C24.4118 58.1523 23.2034 53.6159 22.8115 48.6706C22.3662 43.0807 22.9131 37.3594 23.6032 31.8971C24.0316 32.0417 24.46 32.1745 24.8975 32.2917C24.9001 32.2917 24.9079 32.2956 24.9131 32.2956C25.0225 32.345 25.1357 32.3919 25.2451 32.4375C25.4261 32.5104 25.6084 32.5833 25.7946 32.651C26.3193 39.0456 26.7555 45.3177 26.6514 51.6953ZM43.7165 90.4805C43.749 90.4883 43.7803 90.4961 43.8167 90.5039C44.0433 90.5573 44.2699 90.6094 44.4925 90.6536C44.7269 90.7057 44.9652 90.7513 45.2035 90.7917C45.2686 90.8034 45.3324 90.8151 45.4014 90.8281C45.624 90.8685 45.8454 90.901 46.0719 90.9323C46.3389 90.9726 46.6058 91.0091 46.8727 91.0378C47.1305 91.0703 47.3936 91.095 47.6566 91.1185C47.9834 91.1471 48.3076 91.1667 48.6384 91.1875C48.8571 91.1953 49.0745 91.2083 49.2972 91.2122C49.568 91.22 49.835 91.224 50.1058 91.224C50.8324 91.224 51.5602 91.1953 52.2881 91.1432C52.7725 91.1068 53.2529 91.0586 53.7347 91.0013C55.0029 90.8437 56.2647 90.6016 57.5134 90.2812C57.9209 90.1771 58.3337 90.0599 58.7412 89.9375C59.6787 89.651 60.6045 89.319 61.5094 88.9427C62.6045 88.4857 63.6839 87.9648 64.7425 87.3828C64.9574 87.2695 65.167 87.151 65.3779 87.0299C65.6032 86.8971 65.8298 86.7669 66.0524 86.6302C66.2503 86.513 66.4443 86.3919 66.6384 86.2656C67.055 86.0078 67.4704 85.7318 67.8831 85.4492C68.085 85.3112 68.2907 85.1667 68.4977 85.0169C68.6956 84.875 68.9014 84.7253 69.1032 84.5716C69.3454 84.3971 69.5837 84.2161 69.8232 84.0299C69.8389 85.207 69.9196 86.3463 69.9925 87.3372C70.2022 90.2812 70.4456 93.2174 70.7074 96.056C70.93 98.4792 71.1761 100.917 71.443 103.336C66.4522 105.243 61.5016 107.254 56.5264 109.211C53.9404 110.23 50.2386 112.491 47.4105 111.905C46.085 111.629 44.9326 110.865 43.8779 109.96L43.8258 103.372L43.8128 101.844L43.7894 99.1823L43.7165 90.4805ZM52.1982 132.181C52.8376 132.141 53.5238 132.076 54.0251 131.638C54.6605 131.089 54.6644 130.232 54.7204 129.46C54.8376 127.947 54.8818 126.426 54.9027 124.914C54.9261 123.228 55.5368 120.15 53.8441 119.115C53.2621 118.759 51.1032 118.027 48.8688 117.574C50.4365 116.495 51.9365 115.314 53.5121 114.229C56.8467 120.004 58.8988 126.345 59.5902 133.03C59.6553 133.645 60.5081 133.693 60.9157 133.52C68.2061 130.382 72.9509 123.96 78.2647 118.273C75.2061 128.423 68.2022 137.013 61.0407 144.891C59.792 146.266 58.5238 147.62 57.2347 148.954C56.8949 147.564 56.5316 146.177 56.1514 144.793C54.9873 140.579 53.2217 136.447 52.1982 132.181ZM43.8532 117.465H43.8493C43.6631 117.424 43.4691 117.432 43.3324 117.501C39.2633 119.556 42.1488 127.069 43.2803 130.178C43.5628 130.956 43.8415 131.497 44.1683 131.87C43.3975 135.404 42.8154 138.995 42.1488 142.546C41.7725 144.543 41.3766 146.54 40.9964 148.542C40.5368 147.09 40.0967 145.63 39.6631 144.167C38.7217 140.964 37.861 137.741 36.9925 134.518C36.4587 132.521 36.0264 130.462 35.5003 128.44C36.5068 129.617 37.4443 130.854 38.3245 132.141C38.7334 132.734 40.141 132.642 40.1488 131.751C40.1722 128.78 40.2008 125.796 40.568 122.844C40.7412 121.436 40.9847 120.033 41.3363 118.665C41.5498 117.837 41.6188 116.689 42.4105 116.385C42.9964 116.163 43.6397 116.773 44.1488 117.355C44.0433 117.388 43.943 117.424 43.8532 117.465ZM73.516 104.072C73.8363 103.941 74.1553 103.812 74.4743 103.68C75.5081 103.25 74.7204 102.098 73.7946 102.441C73.6501 102.499 73.5003 102.551 73.3545 102.608C73.2334 101.508 73.1201 100.4 73.0147 99.2956C75.6175 101.835 77.9652 104.617 80.0225 107.638C80.1475 107.824 80.2738 108.01 80.3988 108.201C80.443 108.27 80.4912 108.337 80.5355 108.406C81.0134 109.138 82.0433 110.363 82.1045 111.294C82.1605 112.187 81.5147 112.891 80.8467 113.486C80.5563 113.741 80.2608 113.979 80.0225 114.202C79.6996 114.492 79.3884 114.792 79.0772 115.091C78.1761 115.961 77.3076 116.858 76.4548 117.772C71.7751 122.811 67.5186 128.477 61.3285 131.59C60.4756 124.893 58.1357 118.544 54.5915 112.842C54.3441 112.447 53.8402 112.402 53.4561 112.583C53.4066 112.608 53.3623 112.633 53.318 112.66C51.2777 114.02 49.2933 115.447 47.7738 117.376C46.9287 117.246 46.1084 117.169 45.3975 117.19C44.6735 116.065 43.6761 114.605 42.318 114.565C40.7308 114.521 40.2646 116.122 39.8454 117.408C38.6331 121.121 38.361 125.01 38.2777 128.893C37.4769 127.858 36.624 126.859 35.7321 125.901C34.7985 124.901 33.7751 124.012 32.805 123.057C32.2516 122.512 32.0615 122.435 32.0967 121.65C32.1357 120.922 32.6227 120.04 32.8506 119.345C34.5394 114.217 36.055 109.203 38.7907 104.548C39.7126 104.266 40.6253 103.983 41.5706 103.784C41.6592 103.764 41.7568 103.747 41.8454 103.728L41.8857 108.07C41.6397 107.824 41.3883 107.582 41.1383 107.352C40.8753 107.104 40.016 107.275 40.2985 107.743C40.7699 108.536 41.2998 109.312 41.9014 110.033C42.4834 110.736 43.1344 111.383 43.8571 111.917C44.4235 112.337 45.0342 112.689 45.693 112.956C48.3024 114.008 50.7516 113.09 53.2334 112.115C53.2451 112.111 53.2529 112.107 53.266 112.103C59.3805 109.689 65.5225 107.335 71.6123 104.855C72.2516 104.598 72.8819 104.339 73.516 104.072ZM123.463 183.098C120.343 169.812 117.776 156.206 115.832 142.65L115.78 142.315C115.174 138.044 114.539 133.624 112.413 129.681C110.069 125.346 105.789 121.602 100.366 119.135C99.8285 118.888 99.279 118.654 98.7334 118.423C97.1175 117.736 95.5941 117.085 94.2842 116.126C93.0472 115.216 91.9964 114.003 90.9873 112.831L76.9717 96.5898C76.4626 96.0039 75.8324 95.2721 74.9222 94.8841C74.0902 94.5234 73.2816 94.5195 72.5667 94.6536C72.348 92.2109 72.1462 89.7031 71.9652 87.1875C71.835 85.3971 71.7425 83.8763 71.8232 82.3633C71.8558 82.3307 71.8923 82.3034 71.9196 82.2747C72.2764 83.2409 72.9391 84.1107 73.8272 84.6771C75.6136 85.8047 78.1319 85.8737 80.4027 84.8542C82.3389 83.9857 83.8623 82.5052 85.2152 81.0378C90.4053 75.4128 94.3688 68.9062 98.3089 62.1732C99.6397 59.888 101.146 57.2995 102.024 54.5013C103.111 51.0351 103.171 47.3672 103.102 44.5651C102.917 36.6432 101.442 30.1888 98.6006 24.8281C95.5446 19.0651 90.6553 14.526 85.1345 12.3151C83.5954 7.87109 80.5446 4.2474 76.7009 2.33464C71.9691 -0.0143228 65.7529 -0.0872396 58.2243 2.11979C56.4704 2.63021 54.7126 3.22396 53.0147 3.79948C49.0993 5.12109 45.0498 6.48828 40.9157 6.88411C38.3219 7.13021 36.2959 6.88932 34.7243 6.14062C33.9652 5.77734 33.2659 5.27865 32.5225 4.7487C31.5758 4.07943 30.5993 3.3776 29.4313 2.93359C26.8115 1.9388 23.5954 2.42057 21.0407 4.19531C18.9561 5.64713 17.3024 7.92057 16.2555 10.7695C14.3363 15.9622 14.8675 21.7044 17.6709 26.1341C18.6123 27.6172 19.8363 28.9674 21.2607 30.095C21.4339 30.2331 21.6071 30.3672 21.7894 30.4974C21.7555 30.7148 21.7295 30.9323 21.7008 31.1562C20.973 36.8685 20.3662 42.8906 20.8441 48.8359C21.3688 55.4557 23.292 61.4036 26.4209 66.0703C26.4678 67.1016 26.5537 68.1406 26.6748 69.1719C27.2373 73.9648 28.9756 80.6771 34.0576 85.4284C36.1839 87.418 38.762 88.9271 41.7321 89.9141L41.805 98.5143C40.0186 99.2591 38.2412 100.003 36.4417 100.747C35.6904 101.066 34.8376 101.422 34.1436 102.061C33.1566 102.983 32.7646 104.212 32.4209 105.297L32.3245 105.6C30.279 111.868 25.3571 117.348 19.1462 120.259C18.5967 120.518 18.0068 120.772 17.4404 121.016C15.0876 122.034 12.6514 123.09 11.0433 125.168C9.82584 126.754 9.31803 128.682 8.90917 130.24C3.72037 150.066 0.867503 170.473 0.430003 190.889C0.419586 191.31 0.668284 191.694 1.0537 191.848C6.18651 193.939 11.443 195.723 16.7946 197.186C17.4886 197.38 18.193 197.566 18.8909 197.745C27.4873 199.96 36.3089 201.363 45.1917 201.93C45.9951 201.986 46.8076 202.031 47.6201 202.068C49.8272 202.172 52.0407 202.225 54.2516 202.225C58.2529 202.225 62.2568 202.055 66.2425 201.711C77.2868 200.76 88.2542 198.473 98.7738 194.949C99.4209 194.74 100.067 194.521 100.706 194.29C108.429 191.586 115.905 188.212 122.977 184.217C123.369 183.999 123.567 183.538 123.463 183.098Z" fill="#0F0E0C"/>
<path d="M26.3509 61.0078C26.3587 60.6354 26.3665 60.2669 26.3796 59.8997C26.3848 59.6484 26.3926 59.3984 26.4004 59.1471C26.4121 58.6745 26.429 58.2005 26.4486 57.7318C26.4655 57.263 26.485 56.7943 26.5006 56.3281C26.5579 54.8086 26.623 53.2357 26.6517 51.694C26.7559 45.3177 26.3197 39.0456 25.7936 32.651C25.6074 32.5833 25.4264 32.5104 25.2441 32.4375C25.1361 32.3919 25.0228 32.3451 24.9134 32.2956C24.9082 32.2956 24.9004 32.2904 24.8978 32.2904C24.4603 32.1745 24.0319 32.0417 23.6022 31.8958C22.9134 37.3581 22.3665 43.0807 22.8118 48.6693C23.2038 53.6146 24.4108 58.1524 26.3379 61.9948C26.3431 61.7513 26.3431 61.5052 26.3509 61.2617C26.3483 61.1771 26.3509 61.0925 26.3509 61.0078ZM43.2025 162.06C42.9772 161.389 42.7832 160.71 42.5684 160.055C42.1647 158.85 41.7689 157.637 41.3809 156.419C41.2793 156.12 41.1868 155.816 41.0892 155.517L40.8952 154.911C40.8314 154.693 40.7624 154.474 40.6973 154.255C40.5319 153.746 40.3783 153.233 40.2259 152.719C39.4772 150.249 38.7754 147.762 38.0957 145.262C37.2259 142.031 36.3861 138.788 35.6504 135.525C35.0006 132.617 34.1999 129.596 33.8405 126.599C33.3561 126.09 32.8535 125.589 32.3366 125.103C31.6934 124.496 30.4447 123.764 30.1309 122.871C29.8561 122.063 30.3249 121.148 30.571 120.392C31.5566 117.392 32.498 114.371 33.5215 111.383C34.3535 108.964 35.2858 106.44 36.8223 104.379C36.8301 104.257 36.9069 104.128 37.0762 104.007C37.1009 103.99 37.1178 103.974 37.1413 103.962C37.1947 103.893 37.2493 103.824 37.304 103.759C37.4447 103.598 37.6712 103.501 37.9173 103.473C39.0853 102.797 40.4512 102.288 41.8366 102.029L41.8249 100.69C40.2806 101.337 38.7415 101.977 37.1973 102.615C36.5345 102.898 35.9095 103.158 35.4772 103.557C34.8783 104.116 34.5996 104.993 34.3014 105.923L34.2025 106.238C32.39 111.786 28.5137 116.757 23.498 120.102C23.9134 121.464 24.1569 122.879 24.4355 124.279C24.7546 125.827 24.7962 128.21 25.9512 129.402C27.2572 130.745 30.2233 130.611 30.8743 132.686C31.4798 134.611 28.571 135.548 28.2832 137.113C27.9928 138.699 29.1309 140.741 29.6335 142.27C30.2194 144.053 30.8014 145.836 31.3874 147.616C33.6413 154.491 35.8926 161.365 38.1478 168.24C39.3756 171.992 40.7025 175.741 41.9746 179.51C41.9095 179.057 41.8405 178.6 41.7806 178.147C41.2676 174.548 40.3783 170.775 40.3092 167.135C40.2611 164.842 41.6426 163.387 43.2025 162.06ZM43.2793 130.178C42.1478 127.069 39.2624 119.555 43.3327 117.501C43.4694 117.432 43.6634 117.424 43.8496 117.465H43.8535C43.9421 117.424 44.0436 117.388 44.1491 117.355C43.64 116.773 42.9967 116.163 42.4108 116.384C41.6191 116.688 41.5501 117.836 41.3353 118.665C40.9837 120.033 40.7415 121.435 40.5684 122.842C40.1999 125.794 40.1725 128.779 40.1478 131.751C40.14 132.641 38.7337 132.734 38.3249 132.139C37.4447 130.854 36.5072 129.616 35.5006 128.44C36.0267 130.461 36.459 132.52 36.9928 134.517C37.8613 137.741 38.7207 140.964 39.6634 144.167C40.0957 145.63 40.5371 147.09 40.9967 148.542C41.3756 146.54 41.7728 144.543 42.1478 142.544C42.8144 138.993 43.3965 135.404 44.1686 131.868C43.8418 131.496 43.5631 130.954 43.2793 130.178ZM43.7116 191.561C43.6673 191.258 43.623 190.958 43.5788 190.655C43.3405 190.563 43.1426 190.392 43.0371 190.129C40.3783 183.15 38.3665 175.842 36.0631 168.729C33.8327 161.846 31.6022 154.96 29.3665 148.077C28.7884 146.289 28.2142 144.507 27.6361 142.719C27.1204 141.142 26.1829 139.266 26.1009 137.599C26.0605 136.729 26.3353 136.063 26.89 135.419C27.3769 134.853 29.0788 134.004 28.9108 133.13C28.7363 132.26 26.5006 131.763 25.7858 131.384C24.9525 130.935 24.2454 130.384 23.8418 129.495C23.2637 128.237 23.2923 126.628 23.123 125.285C22.9368 123.757 22.6855 122.212 22.6126 120.667C21.765 121.193 20.8796 121.671 19.9733 122.095C19.3926 122.37 18.7936 122.629 18.2116 122.879C15.9889 123.841 13.8887 124.747 12.5983 126.422C11.7064 127.582 11.2767 129.014 10.821 130.76C5.72852 150.204 2.9043 170.21 2.42773 190.23C7.12695 192.119 11.9395 193.745 16.8262 195.103C16.8704 194.044 16.9342 192.988 16.9681 191.949C17.0488 189.296 17.1543 186.639 17.2506 183.987C17.4395 178.806 17.6256 173.63 17.8158 168.451C18.0072 163.273 18.196 158.094 18.3822 152.917C18.4863 150.135 18.7988 147.316 16.8743 145.068C15.5736 143.552 13.8079 142.638 12.3639 141.292C11.9395 140.895 12.6921 140.491 13.0358 140.604C16.709 141.816 20.1934 144.697 20.5801 148.82C20.8144 151.328 20.4993 153.957 20.416 156.467C20.3145 159.258 20.2168 162.044 20.1152 164.831C19.9134 170.54 19.7116 176.246 19.5098 181.957C19.4082 184.742 19.3197 187.529 19.2142 190.319C19.1465 192.078 19.1621 193.902 19.0645 195.702C27.5111 197.901 36.1764 199.305 44.9082 199.887C44.8275 199.203 44.7428 198.529 44.6452 197.865C44.3301 195.767 44.0189 193.664 43.7116 191.561ZM50.9941 27.9609C51.1803 27.7982 51.3704 27.6367 51.5605 27.4753C52.1465 27.1159 52.5579 26.7188 53.2572 26.5977C54.5631 26.3672 55.5241 27.0951 56.2194 28.1628C56.9069 29.2096 57.1256 30.2526 58.4512 29.5339C59.0775 29.1901 59.5462 28.7122 60.2858 28.526C60.7624 28.405 61.2598 28.3646 61.7402 28.405C61.0657 26.8307 60.6894 25.0651 59.5006 23.7175C57.5618 21.5143 54.8301 21.1458 52.4368 22.7917C50.7884 23.9271 49.4915 25.5143 48.0046 26.8438C47.9629 26.8802 47.9225 26.9167 47.8822 26.9492C48.1087 27.2357 48.3561 27.5156 48.6178 27.6523C49.4056 27.7591 50.1986 27.8594 50.9941 27.9609ZM43.8249 103.371L43.8783 109.958C44.9329 110.865 46.084 111.629 47.4095 111.904C50.2389 112.491 53.9407 110.23 56.5267 109.211C61.5019 107.254 66.4525 105.243 71.4434 103.335C71.1764 100.917 70.9303 98.4779 70.7077 96.056C70.4446 93.2175 70.2025 90.2813 69.9928 87.3373C69.9199 86.3464 69.8392 85.2057 69.8223 84.03C69.584 84.2149 69.3457 84.3971 69.1035 84.5716C68.9017 84.7253 68.6946 84.875 68.4967 85.0156C68.291 85.1654 68.0853 85.3112 67.8821 85.4492C67.4707 85.7318 67.054 86.0065 66.6387 86.2656C66.4446 86.3906 66.2506 86.5117 66.0527 86.6302C65.8301 86.7669 65.6035 86.8971 65.3769 87.03C65.1673 87.1511 64.9564 87.2682 64.7428 87.3815C63.6842 87.9636 62.6048 88.4857 61.5098 88.9427C60.6048 89.319 59.679 89.6511 58.7415 89.9375C58.3327 90.0586 57.9212 90.1758 57.5124 90.2813C56.2637 90.6003 55.0032 90.8438 53.735 91.0013C53.2532 91.0573 52.7728 91.1068 52.2871 91.1432C51.5605 91.1953 50.8327 91.224 50.1048 91.224C49.834 91.224 49.5684 91.2201 49.2975 91.2109C49.0749 91.207 48.8561 91.1953 48.6387 91.1875C48.3066 91.1667 47.9837 91.1471 47.6569 91.1185C47.3939 91.0938 47.1309 91.0703 46.8717 91.0378C46.6061 91.0091 46.3392 90.9727 46.0723 90.9323C45.8457 90.8997 45.623 90.8672 45.4017 90.8268C45.3327 90.8151 45.2676 90.8034 45.2038 90.7904C44.9655 90.75 44.7259 90.7057 44.4915 90.6537C44.2702 90.6094 44.0436 90.556 43.8171 90.5039C43.7806 90.4961 43.748 90.487 43.7155 90.4792L43.7884 99.1823L43.8131 101.842L43.8249 103.371ZM54.7207 129.458C54.6634 130.23 54.6595 131.089 54.0254 131.638C53.5241 132.076 52.8379 132.139 52.1986 132.18C53.2207 136.447 54.9876 140.579 56.1517 144.793C56.5306 146.176 56.8952 147.563 57.2337 148.954C58.5228 147.62 59.7923 146.266 61.041 144.891C68.2025 137.013 75.2051 128.423 78.265 118.273C72.9512 123.958 68.2064 130.38 60.916 133.518C60.5072 133.693 59.6543 133.645 59.5905 133.03C58.8991 126.345 56.8457 120.004 53.5124 114.229C51.9355 115.313 50.4368 116.493 48.8691 117.574C51.1035 118.026 53.2611 118.758 53.8431 119.115C55.5371 120.15 54.9264 123.227 54.9017 124.913C54.8822 126.426 54.8379 127.947 54.7207 129.458ZM74.4746 103.678C74.1543 103.813 73.8353 103.941 73.5163 104.072C72.8821 104.337 72.2519 104.596 71.6126 104.855C65.5228 107.335 59.3795 109.688 53.265 112.102C53.2532 112.107 53.2454 112.111 53.2337 112.115C50.7519 113.089 48.3027 114.007 45.6921 112.956C45.0332 112.689 44.4238 112.337 43.8574 111.917C43.1348 111.383 42.4837 110.736 41.9017 110.031C41.2988 109.313 40.7702 108.535 40.2975 107.742C40.015 107.273 40.8756 107.104 41.1374 107.35C41.3887 107.581 41.6387 107.824 41.8861 108.07L41.8444 103.728C41.7559 103.747 41.6595 103.763 41.5697 103.784C40.6243 103.982 39.7129 104.266 38.791 104.548C36.0553 109.203 34.5397 114.217 32.8509 119.345C32.623 120.04 32.1348 120.922 32.097 121.65C32.0605 122.435 32.2519 122.512 32.804 123.057C33.7754 124.012 34.7988 124.901 35.7311 125.9C36.6243 126.858 37.4772 127.857 38.278 128.892C38.3613 125.01 38.6322 121.12 39.8444 117.408C40.265 116.122 40.7311 114.521 42.3184 114.565C43.6751 114.605 44.6738 116.065 45.3978 117.189C46.1087 117.169 46.929 117.246 47.7741 117.375C49.2936 115.447 51.2767 114.02 53.3184 112.66C53.3626 112.632 53.4069 112.608 53.4551 112.583C53.8392 112.401 54.3444 112.445 54.5905 112.842C58.1348 118.544 60.4746 124.893 61.3275 131.59C67.5189 128.477 71.7741 122.81 76.4538 117.772C77.3066 116.858 78.1764 115.96 79.0775 115.091C79.3887 114.792 79.6999 114.492 80.0228 114.201C80.2611 113.979 80.5566 113.74 80.847 113.486C81.5137 112.891 82.1608 112.188 82.1035 111.293C82.0436 110.363 81.0124 109.138 80.5358 108.406C80.4915 108.337 80.4433 108.268 80.3991 108.199C80.2728 108.009 80.1478 107.824 80.0228 107.638C77.9655 104.617 75.6178 101.835 73.015 99.2956C73.1204 100.4 73.2337 101.507 73.3548 102.607C73.5006 102.551 73.6491 102.497 73.7949 102.441C74.7207 102.098 75.5085 103.25 74.4746 103.678ZM64.3548 41.5274C64.3548 39.4792 62.1686 37.8151 59.4694 37.8151C56.7728 37.8151 54.5866 39.4792 54.5866 41.5274C54.5866 43.5781 56.7728 42.5586 59.4694 42.5586C62.1686 42.5586 64.3548 43.5781 64.3548 41.5274ZM59.3522 55.7865C60.3626 55.7865 61.1829 53.987 61.1829 51.7669C61.1829 49.5469 60.3626 47.7474 59.3522 47.7474C58.3418 47.7474 57.5254 49.5469 57.5254 51.7669C57.5254 53.987 58.3418 55.7865 59.3522 55.7865ZM59.5944 68.905C56.3405 72.7149 52.485 75.0768 47.3535 73.7331C46.3717 73.4792 45.5111 74.8503 46.6829 75.2175C51.7819 76.8229 59.4199 75.4037 61.4251 69.5482C61.8288 68.3789 60.1725 68.2253 59.5944 68.905ZM47.7819 66.8867C48.4082 66.8711 49.0462 65.9779 48.1699 65.7383C46.8926 65.3945 45.6152 65.0469 44.3665 64.6146C43.834 64.4284 42.8236 64.2266 42.4264 63.7617C41.9095 63.1432 42.2572 61.8359 42.3822 61.1289C42.9564 57.7969 44.1283 54.6914 45.3405 51.5612C45.5306 51.0716 44.6452 51.0234 44.4394 51.3503C43.2637 53.2227 42.403 55.2448 41.7155 57.3555C41.1374 59.1393 40.3743 61.2943 40.3743 63.1992C40.3743 66.3776 45.5111 66.9401 47.7819 66.8867ZM41.3887 42.082C41.3887 40.0313 39.2025 38.3698 36.5072 38.3698C33.8066 38.3698 31.6204 40.0313 31.6204 42.082C31.6204 44.1328 33.8066 43.1133 36.5072 43.1133C39.2025 43.1133 41.3887 44.1328 41.3887 42.082ZM37.1738 51.7669C37.1738 49.5469 36.3574 47.7474 35.347 47.7474C34.3366 47.7474 33.5163 49.5469 33.5163 51.7669C33.5163 53.987 34.3366 55.7865 35.347 55.7865C36.3574 55.7865 37.1738 53.987 37.1738 51.7669ZM80.7428 52.4948C81.4173 54.444 82.9134 54.0078 84.4329 53.793C86.304 53.53 85.4629 55.8763 84.9056 56.9154C84.1855 58.2578 83.0137 59.0951 81.8131 59.9518C81.0423 60.5065 81.765 61.5456 82.5775 61.2826C85.39 60.3724 89.0228 56.3203 87.4069 53.0573C87.1282 52.4987 86.7233 52.099 86.1374 51.8919C85.0996 51.5247 84.4525 52.2969 83.5189 52.293C81.5514 52.2813 83.7012 49.0495 84.3314 48.2969C85.1634 47.2982 86.2103 47.1445 87.2168 46.4857C87.2936 46.4336 87.3418 46.3438 87.278 46.2591C85.1074 43.3958 79.8782 50.0117 80.7428 52.4948ZM76.5723 74.3685C75.0931 76.2526 73.5618 77.9557 72.0019 79.4675L71.998 79.4714C71.3991 80.0547 70.821 80.5834 70.2311 81.0938C70.2233 81.0938 70.2194 81.1016 70.2116 81.1055C67.2454 83.6862 64.0644 85.6914 60.7624 87.0703C55.1374 89.4193 48.4902 89.8359 42.9772 88.1901C40.0111 87.3008 37.4629 85.8698 35.3965 83.9362C30.7585 79.6016 29.1647 73.3854 28.6361 68.9336C28.515 67.862 28.4251 66.7695 28.3809 65.694C28.235 62.6211 28.36 59.4622 28.4785 56.4102C28.5384 54.8763 28.5944 53.2917 28.6243 51.7305C28.7376 45.3945 28.3079 39.1914 27.8027 32.8815C33.1647 33.6263 38.7988 32.5417 43.571 29.9427C44.7428 29.3073 45.8665 28.5781 46.9212 27.7539C47.5644 28.8867 48.5579 29.776 49.9368 29.8607C50.5553 29.8971 51.153 29.7318 51.6947 29.4336C52.8053 28.8138 53.4355 27.9479 54.5358 29.2318C55.416 30.2526 55.6907 31.5599 57.2506 31.7305C57.9785 31.806 58.5397 31.5469 59.1504 31.1914C59.5996 30.9323 59.9056 30.4479 60.3874 30.2461C61.2715 29.8815 62.1777 30.2734 62.9082 30.7552C63.2363 30.974 63.7051 30.8802 64.0319 30.6419L64.0358 30.6471C68.5019 34.3867 69.1894 39.9844 68.9095 45.556C68.765 48.5156 68.5098 51.5078 68.8782 54.4649C69.1439 56.5951 69.7793 60.0326 71.8444 61.1693C77.2233 64.1211 78.6295 53.8412 79.3769 50.8815C80.1126 47.9701 80.5371 43.9701 82.9173 41.8997C86.2428 39.0091 89.7389 42.668 90.442 46.0651C91.8965 53.1133 89.3548 63.0664 81.2363 64.1654C81.0905 64.1862 80.9577 64.2266 80.8314 64.2865C80.5931 64.1458 80.2298 64.138 80.0111 64.3034C77.0736 66.543 75.9863 70.7214 76.5723 74.3685ZM23.39 29.1654C24.5332 29.9336 25.7572 30.5313 27.0267 30.944C27.1387 30.9805 27.248 31.0404 27.3379 31.1185C34.5762 32.1003 42.0592 30.151 47.5072 24.8789C50.235 22.2448 53.3014 19.0716 57.4238 20.2201C60.7858 21.1628 63.9707 25.3958 63.7402 29.1159C63.9017 29.2305 64.0553 29.3581 64.2012 29.5C64.3743 29.6745 64.4394 29.8568 64.4238 30.03C64.4473 30.0391 64.4759 30.0469 64.5006 30.0547C70.291 32.4727 71.1361 39.6185 70.9264 45.2149C70.7884 48.8099 70.3639 52.4857 71.2376 56.0287C71.403 56.7083 71.6738 57.8646 72.0618 58.4024C72.623 59.1784 71.8952 58.8711 73.5006 59.0899C74.8665 59.2721 74.7611 59.349 75.2702 58.1107C75.4316 57.7149 75.5293 57.2865 75.6374 56.8698C76.1556 54.8646 76.5996 52.8425 77.1126 50.8359C77.9212 47.6862 78.4186 43.9531 80.6126 41.4297C82.3223 39.4609 84.9368 38.4831 87.442 39.2591C93.7025 41.1914 93.6217 49.9349 92.3965 55.1992C91.0801 60.8737 86.8848 65.4636 81.0736 66.0781C80.8105 66.1055 80.6087 66.0742 80.4551 65.9922C79.6595 67.4492 78.8874 68.7956 78.584 70.5586C78.5071 71.0026 78.4551 71.4479 78.4303 71.8971C78.3535 72.9518 78.4108 74.0117 78.5644 75.0586C78.6204 75.4479 78.6933 75.832 78.7741 76.2162C78.9316 76.9805 77.5579 77.3724 77.2298 76.7331C76.054 78.1524 74.8535 79.4675 73.6295 80.668C73.6048 81.5209 74.1061 82.4675 74.8743 82.957C76.0866 83.7292 77.9499 83.7461 79.6061 83.0013C81.1335 82.3177 82.3782 81.1693 83.7806 79.6485C88.8288 74.1732 92.7285 67.7682 96.6074 61.1354C97.8848 58.9479 99.3314 56.4609 100.14 53.8854C101.135 50.707 101.191 47.2617 101.126 44.6133C100.945 37.0182 99.5462 30.8633 96.8665 25.7878C94.1504 20.6732 89.8991 16.6042 85.0749 14.4779C79.0202 16.2201 73.6777 18.849 70.7767 25.0208C70.4446 25.724 69.0553 25.4766 69.39 24.6198C71.5931 18.9987 77.2585 13.9675 83.3444 13.2279C82.0071 9.16667 79.2793 5.86719 75.8366 4.15365C71.5566 2.02604 65.8184 1.9987 58.7702 4.0599C57.0527 4.5625 55.3144 5.14844 53.6335 5.71875C49.6126 7.07292 45.4577 8.47657 41.097 8.89714C38.1439 9.17969 35.7832 8.87631 33.8926 7.97136C32.9707 7.53386 32.1712 6.96094 31.3952 6.40625C30.5059 5.77865 29.6725 5.1849 28.7402 4.82943C28.0684 4.57422 27.3379 4.44922 26.5814 4.44922C25.0788 4.44922 23.4902 4.94141 22.1569 5.86719C19.9499 7.40105 18.7376 9.76563 18.1022 11.4818C16.4108 16.0742 16.8704 21.1432 19.3314 25.0313C20.3457 26.6341 21.748 28.0612 23.39 29.1654ZM100.339 133.967C100.533 133.579 99.9147 133.441 99.7168 133.725C96.8144 137.862 94.5475 142.488 92.6933 147.207C91.8366 149.375 90.8704 151.697 90.834 154.07C90.7975 156.561 91.5449 159.121 92.0137 161.547C94.0631 172.021 95.9017 182.587 98.2897 192.988C87.8756 196.486 77.0163 198.759 66.0814 199.697C59.8574 200.23 53.6061 200.34 47.3783 200.033C47.0514 197.793 46.5501 195.544 46.2272 193.393C45.64 189.449 45.0631 185.512 44.4928 181.568C43.9108 177.492 43.3327 173.415 42.7676 169.34C42.4525 167.083 42.2663 165.547 43.9551 163.938C44.0124 163.88 44.0723 163.828 44.1335 163.771C44.6504 163.314 45.1673 162.866 45.6894 162.421C46.6465 161.595 47.6126 160.779 48.554 159.938C51.0397 157.717 53.472 155.432 55.8405 153.076C56.4837 152.452 57.1178 151.814 57.748 151.167C59.8288 149.055 61.8665 146.888 63.847 144.676C68.5098 139.471 73.0241 134.02 76.4264 127.849C78.4277 124.214 80.0397 120.142 80.6256 115.973C81.6764 115.059 82.7754 114.133 83.459 113.016C84.3639 111.544 83.7858 110.177 82.9616 108.823C80.4355 104.658 77.2389 100.99 73.6465 97.7578C73.4316 97.5638 73.1256 97.5365 72.8457 97.6094C72.8144 97.3021 72.7858 96.9896 72.7571 96.6823C73.3144 96.5495 73.7559 96.5742 74.1556 96.7474C74.6491 96.9583 75.0775 97.4505 75.4889 97.9284L89.5006 114.168C89.5931 114.273 89.6816 114.379 89.7793 114.488C89.6295 114.682 89.5045 114.884 89.3991 115.091C88.9303 115.992 88.7884 117.031 88.5345 118.07C88.1387 119.697 87.7428 121.322 87.3092 122.94C86.5137 125.944 85.6452 128.928 84.7077 131.889C82.6465 131.221 80.5488 130.939 78.347 131.04C77.8574 131.06 77.1907 131.408 77.3118 132.026C77.8574 134.784 78.4069 137.538 78.9525 140.297C79.2077 141.557 79.8782 143.402 79.3965 144.66C78.9446 145.836 77.6152 146.723 76.7506 147.568C73.1126 151.098 69.5931 154.745 66.1907 158.507C62.7272 162.332 59.3926 166.271 56.1881 170.318C54.5072 172.441 52.8587 174.589 51.2532 176.768C49.9928 178.483 48.8327 180.089 49.0801 182.32C49.2051 183.457 51.347 182.992 51.1855 181.819C50.8131 179.113 54.0384 176.056 55.5618 174.063C57.0527 172.109 58.5762 170.181 60.1282 168.276C63.4629 164.184 66.9342 160.204 70.5306 156.346C72.2845 154.466 74.0749 152.615 75.8887 150.79C77.485 149.189 79.64 147.66 80.8522 145.719C81.9876 143.896 81.2402 141.849 80.8483 139.892C80.3587 137.461 79.8704 135.035 79.3808 132.604C81.3001 132.654 83.1308 133.03 84.9655 133.708C85.3457 133.85 86.0449 133.604 86.1699 133.178C87.14 129.936 88.041 126.672 88.8535 123.38C89.2819 121.646 89.6946 119.902 90.0618 118.152C90.2598 117.206 90.5749 116.259 90.5228 115.329C91.3105 116.199 92.1478 117.044 93.1335 117.768C94.6204 118.863 96.3223 119.587 97.9707 120.286C98.5045 120.513 99.0371 120.74 99.5592 120.979C104.594 123.271 108.546 126.708 110.68 130.66C112.636 134.279 113.243 138.513 113.829 142.609L113.877 142.941C115.788 156.302 118.311 169.712 121.365 182.818C114.678 186.547 107.633 189.712 100.355 192.276C98.6048 182.369 96.3418 172.526 94.2767 162.684C93.7519 160.164 92.9915 157.589 92.6881 155.033C92.3613 152.335 93.3926 149.771 94.2897 147.284C95.9499 142.665 98.1321 138.327 100.339 133.967Z" fill="white"/>
</svg>
