<svg width="18" height="31" viewBox="0 0 18 31" fill="none" xmlns="http://www.w3.org/2000/svg">
<path fill-rule="evenodd" clip-rule="evenodd" d="M3.29579 1.39972C2.83668 2.18992 2.18355 3.3067 1.84741 3.88404C1.51128 4.46138 0.959256 5.40612 0.623122 5.98346C0.286989 6.5608 0.00551196 7.04192 4.63852e-05 7.05504C-0.00541919 7.06816 0.472819 7.08128 1.06583 7.0842L2.13982 7.09295V15.0387C2.13982 23.8038 2.12889 23.1827 2.30652 24.1362C2.71097 26.3172 3.84781 28.1163 5.49842 29.1952C7.00145 30.1778 8.89801 30.5744 10.9257 30.3295C13.2759 30.0495 15.2108 28.787 16.3421 26.7984C16.9105 25.7982 17.2576 24.696 17.4216 23.378C17.4653 23.0136 17.4708 22.5091 17.4762 16.692L17.4872 10.4025H13.4973L13.4864 16.4733C13.4782 23.0865 13.4864 22.6899 13.3279 23.416C13.0464 24.7048 12.3605 25.7049 11.4258 26.2064C10.923 26.4747 10.4967 26.568 9.8053 26.568C9.25874 26.568 9.01279 26.533 8.61107 26.3931C7.47423 25.9965 6.63253 24.9205 6.31006 23.4451C6.14882 22.7074 6.15975 23.2906 6.15156 14.8258L6.14336 7.07837H8.30226L8.20935 6.92383C8.16016 6.84218 7.76937 6.16862 7.34032 5.4309C5.99305 3.10696 4.19761 0.0365545 4.16482 0.00156415C4.14296 -0.0261366 3.93253 0.309188 3.29579 1.39972Z" fill="white"/>
</svg>
