<svg width="79" height="34" viewBox="0 0 79 34" fill="none" xmlns="http://www.w3.org/2000/svg">
<path d="M19.3516 12.0962V23.4636H21.5796V19.7597H23.623C24.7041 19.7597 25.5478 19.4244 26.1674 18.7379C26.7739 18.0513 27.0903 17.1094 27.0903 15.9279C27.0903 14.7465 26.7739 13.8205 26.1674 13.134C25.5478 12.4475 24.7041 12.0962 23.623 12.0962H19.3516ZM21.5796 17.4766V14.3793H23.478C23.8999 14.3793 24.2426 14.523 24.4931 14.7784C24.7304 15.0498 24.8623 15.433 24.8623 15.9279C24.8623 16.4388 24.7304 16.822 24.4931 17.0774C24.2558 17.3489 23.9131 17.4766 23.478 17.4766H21.5796Z" fill="#1363FF"/>
<path d="M28.1062 12.0962V23.4636H30.3343V19.7597H32.3777C33.4587 19.7597 34.3025 19.4244 34.9221 18.7379C35.5286 18.0513 35.845 17.1094 35.845 15.9279C35.845 14.7465 35.5286 13.8205 34.9221 13.134C34.3025 12.4475 33.4587 12.0962 32.3777 12.0962H28.1062ZM30.3343 17.4766V14.3793H32.2327C32.6546 14.3793 32.9973 14.523 33.2478 14.7784C33.4851 15.0498 33.6169 15.433 33.6169 15.9279C33.6169 16.4388 33.4851 16.822 33.2478 17.0774C33.0105 17.3489 32.6677 17.4766 32.2327 17.4766H30.3343Z" fill="#1363FF"/>
<path d="M40.5514 23.7191C41.7906 23.7191 42.7662 23.4157 43.4781 22.7931C44.1768 22.1864 44.5328 21.2923 44.5328 20.1269C44.5328 19.1689 44.2691 18.4026 43.755 17.8598C43.2408 17.3169 42.4234 16.9178 41.2897 16.6623L40.4986 16.4867C39.8922 16.359 39.4835 16.1834 39.2462 15.9758C39.0089 15.7842 38.9034 15.4809 38.9034 15.0977C38.9034 14.3314 39.378 13.9482 40.3404 13.9482C40.9337 13.9482 41.3688 14.0759 41.6456 14.3314C41.9225 14.5868 42.0807 15.0019 42.107 15.5448H44.2164C44.1637 14.3633 43.8209 13.4373 43.1617 12.7987C42.5025 12.1601 41.5401 11.8408 40.3009 11.8408C39.1276 11.8408 38.2179 12.1441 37.5851 12.7508C36.9523 13.3575 36.6359 14.1877 36.6359 15.2095C36.6359 17.1573 37.6774 18.3547 39.7735 18.7698L40.5382 18.9454C41.1974 19.1051 41.6324 19.2647 41.8697 19.4563C42.107 19.6479 42.2257 19.9193 42.2257 20.3025C42.2257 21.1806 41.6852 21.6116 40.6305 21.6116C39.9449 21.6116 39.4308 21.4839 39.1012 21.1965C38.7716 20.9251 38.6002 20.4302 38.6002 19.7277H36.4381C36.4381 20.989 36.8073 21.9629 37.5192 22.6654C38.2311 23.3679 39.233 23.7191 40.5514 23.7191Z" fill="#1363FF"/>
<path d="M51.5911 12.0962L47.702 17.0136V12.0962H45.474V23.4636H47.702V20.063L48.9676 18.5463L51.6702 23.4636H54.3069L50.5364 16.7422L54.3069 12.0962H51.5911Z" fill="#1363FF"/>
<path d="M63.8105 23.4636L60.2773 12.0962H57.6274L54.1733 23.4636H56.4541L56.9946 21.4839H60.8969L61.4506 23.4636H63.8105ZM58.1548 17.285C58.2075 17.1094 58.458 16.1514 58.9326 14.4112C59.2885 15.7523 59.5522 16.7102 59.7236 17.285L60.2641 19.2328H57.6142L58.1548 17.285Z" fill="#1363FF"/>
<path d="M66.6533 12.0962H64.4253V23.4636H70.9511V21.0529H66.6533V12.0962Z" fill="#1363FF"/>
<path d="M79 12.0962H71.8281V23.4636H78.9868V21.0529H74.0561V18.8337H78.5517V16.5666H74.0561V14.507H79V12.0962Z" fill="#1363FF"/>
<path fill-rule="evenodd" clip-rule="evenodd" d="M3.25012 1.56548C2.79738 2.44925 2.15329 3.69828 1.82181 4.34399C1.49034 4.9897 0.945964 6.04632 0.614488 6.69203C0.283013 7.33774 0.00543559 7.87583 4.57425e-05 7.89051C-0.0053441 7.90518 0.466267 7.91986 1.05107 7.92312L2.11017 7.9329V16.8196C2.11017 26.6226 2.09939 25.928 2.27456 26.9944C2.67341 29.4338 3.7945 31.4459 5.42223 32.6525C6.90444 33.7515 8.77472 34.1951 10.7743 33.9211C13.092 33.608 15 32.196 16.1157 29.9719C16.6762 28.8533 17.0185 27.6206 17.1802 26.1465C17.2233 25.7389 17.2287 25.1747 17.2341 18.6687L17.2449 11.6343H13.3103L13.2995 18.4241C13.2914 25.8204 13.2995 25.3769 13.1432 26.1889C12.8656 27.6303 12.1892 28.7489 11.2675 29.3098C10.7717 29.6099 10.3512 29.7142 9.66943 29.7142C9.13045 29.7142 8.8879 29.6751 8.49175 29.5186C7.37066 29.075 6.54062 27.8717 6.22262 26.2215C6.06362 25.3964 6.0744 26.0487 6.06632 16.5815L6.05823 7.9166H8.18722L8.0956 7.74375C8.04709 7.65244 7.66171 6.89911 7.23861 6.07404C5.91001 3.47489 4.13945 0.0408834 4.10711 0.00174938C4.08555 -0.0292317 3.87804 0.345802 3.25012 1.56548Z" fill="#1363FF"/>
</svg>
