<svg width="119" height="42" viewBox="0 0 119 42" fill="none" xmlns="http://www.w3.org/2000/svg">
<path d="M28.918 14.9424V28.9845H32.2474V24.409H35.3011C36.9165 24.409 38.1774 23.9948 39.1033 23.1468C40.0096 22.2987 40.4824 21.1351 40.4824 19.6757C40.4824 18.2162 40.0096 17.0724 39.1033 16.2243C38.1774 15.3763 36.9165 14.9424 35.3011 14.9424H28.918ZM32.2474 21.5887V17.7626H35.0843C35.7148 17.7626 36.227 17.9401 36.6013 18.2557C36.9559 18.591 37.1529 19.0643 37.1529 19.6757C37.1529 20.3068 36.9559 20.7801 36.6013 21.0957C36.2467 21.4309 35.7345 21.5887 35.0843 21.5887H32.2474Z" fill="#1363FF"/>
<path d="M42.0006 14.9424V28.9845H45.33V24.409H48.3837C49.9992 24.409 51.26 23.9948 52.186 23.1468C53.0922 22.2987 53.565 21.1351 53.565 19.6757C53.565 18.2162 53.0922 17.0724 52.186 16.2243C51.26 15.3763 49.9992 14.9424 48.3837 14.9424H42.0006ZM45.33 21.5887V17.7626H48.167C48.7974 17.7626 49.3096 17.9401 49.6839 18.2557C50.0386 18.591 50.2356 19.0643 50.2356 19.6757C50.2356 20.3068 50.0386 20.7801 49.6839 21.0957C49.3293 21.4309 48.8171 21.5887 48.167 21.5887H45.33Z" fill="#1363FF"/>
<path d="M60.5981 29.3001C62.45 29.3001 63.9078 28.9253 64.9717 28.1562C66.0158 27.4067 66.5478 26.3023 66.5478 24.8626C66.5478 23.6793 66.1537 22.7326 65.3854 22.0621C64.6171 21.3915 63.3956 20.8985 61.7013 20.5829L60.5193 20.366C59.613 20.2082 59.0023 19.9912 58.6477 19.7348C58.2931 19.4982 58.1355 19.1235 58.1355 18.6501C58.1355 17.7035 58.8447 17.2301 60.2829 17.2301C61.1694 17.2301 61.8195 17.3879 62.2333 17.7035C62.647 18.019 62.8834 18.5318 62.9228 19.2024H66.0749C65.9961 17.7429 65.4839 16.599 64.4989 15.8102C63.5138 15.0213 62.0757 14.6268 60.2238 14.6268C58.4704 14.6268 57.111 15.0016 56.1654 15.751C55.2197 16.5004 54.7469 17.526 54.7469 18.7882C54.7469 21.1943 56.3033 22.6734 59.4357 23.1862L60.5784 23.4032C61.5634 23.6004 62.2136 23.7976 62.5682 24.0343C62.9228 24.2709 63.1001 24.6062 63.1001 25.0795C63.1001 26.1642 62.2924 26.6967 60.7163 26.6967C59.6918 26.6967 58.9235 26.539 58.431 26.184C57.9385 25.8487 57.6824 25.2373 57.6824 24.3695H54.4514C54.4514 25.9276 55.003 27.1306 56.0669 27.9984C57.1307 28.8662 58.628 29.3001 60.5981 29.3001Z" fill="#1363FF"/>
<path d="M77.0954 14.9424L71.2837 21.0168V14.9424H67.9542V28.9845H71.2837V24.7837L73.1749 22.9101L77.2136 28.9845H81.1538L75.5194 20.6815L81.1538 14.9424H77.0954Z" fill="#1363FF"/>
<path d="M95.3555 28.9845L90.0757 14.9424H86.1158L80.9542 28.9845H84.3624L85.1702 26.539H91.0016L91.8291 28.9845H95.3555ZM86.9039 21.3521C86.9827 21.1351 87.357 19.9518 88.0662 17.8021C88.5981 19.4587 88.9921 20.6421 89.2483 21.3521L90.056 23.7582H86.0961L86.9039 21.3521Z" fill="#1363FF"/>
<path d="M99.6037 14.9424H96.2742V28.9845H106.026V26.0065H99.6037V14.9424Z" fill="#1363FF"/>
<path d="M118.054 14.9424H107.337V28.9845H118.034V26.0065H110.666V23.2651H117.384V20.4646H110.666V17.9204H118.054V14.9424Z" fill="#1363FF"/>
<path fill-rule="evenodd" clip-rule="evenodd" d="M4.85685 1.93383C4.18028 3.02555 3.21779 4.56846 2.72244 5.3661C2.2271 6.16375 1.41361 7.46898 0.918266 8.26662C0.422922 9.06427 0.00812272 9.72897 6.83557e-05 9.7471C-0.00798601 9.76522 0.696771 9.78335 1.57067 9.78738L3.15335 9.79947V20.7771C3.15335 32.8868 3.13724 32.0287 3.39901 33.346C3.99503 36.3593 5.67034 38.8449 8.10276 40.3355C10.3177 41.6931 13.1126 42.241 16.1007 41.9026C19.5641 41.5158 22.4154 39.7715 24.0826 37.024C24.9203 35.6423 25.4317 34.1195 25.6733 32.2986C25.7378 31.7951 25.7458 31.0981 25.7539 23.0613L25.77 14.3718H19.8903L19.8742 22.7591C19.8621 31.8958 19.8742 31.3479 19.6406 32.351C19.2258 34.1316 18.215 35.5134 16.8377 36.2063C16.0967 36.5769 15.4685 36.7058 14.4496 36.7058C13.6442 36.7058 13.2817 36.6575 12.6897 36.4641C11.0144 35.9162 9.77404 34.4297 9.29883 32.3913C9.06122 31.3721 9.07733 32.1778 9.06525 20.483L9.05317 9.77932H12.2346L12.0977 9.56581C12.0252 9.45302 11.4493 8.52243 10.8171 7.50322C8.83168 4.29251 6.18582 0.050503 6.13749 0.002161C6.10527 -0.0361097 5.79518 0.427167 4.85685 1.93383Z" fill="#1363FF"/>
</svg>
