<svg width="122" height="196" viewBox="0 0 122 196" fill="none" xmlns="http://www.w3.org/2000/svg">
<path d="M119.875 155.51C118.803 152.777 117.004 150.461 115.264 148.215L114.9 147.743C108.088 138.924 102.04 129.428 96.9022 119.498C96.6321 118.98 96.3674 118.461 96.1014 117.939C96.4566 116.898 96.9373 115.888 97.4396 114.828C98.3848 112.851 99.3597 110.806 99.4691 108.503C99.6257 105.204 97.9243 101.73 94.6782 98.7157C93.3711 97.5031 91.9384 96.435 90.5503 95.4061C89.196 94.396 87.7957 93.3549 86.5615 92.2085C85.0681 90.8204 83.7339 89.1946 82.4377 87.6229C81.6963 86.7141 80.924 85.7784 80.1246 84.8858C77.2565 81.6964 74.587 79.8249 71.727 79.0052C69.7178 78.4246 67.5883 78.4637 65.7222 79.0727C65.4805 79.1457 65.2428 79.2361 65.0092 79.3333C64.8836 78.7635 64.7702 78.1869 64.6608 77.6144C64.5596 77.1148 64.4704 76.6152 64.3881 76.1169C65.2158 76.6044 66.0733 77.0257 66.9591 77.3794C68.1379 77.844 70.0067 78.1518 71.4002 77.4807C72.1483 77.1188 72.6682 76.522 72.8977 75.7577C73.2137 74.7207 72.8829 73.7768 72.5899 72.9464C72.3914 72.3806 72.2037 71.8513 72.2698 71.4259C72.4143 70.5131 73.7012 69.9446 74.8327 69.4369L75.0015 69.3627C79.336 67.4371 82.7806 63.659 84.5374 58.9369C87.6971 58.5507 90.792 56.5509 92.3908 53.8058C94.5729 50.0816 94.9348 45.3609 93.5345 38.9551C91.2282 28.3416 86.0632 18.2454 78.5825 9.75734C73.7363 4.26833 69.0939 1.59337 64.3962 1.57582C64.38 1.57582 64.3611 1.57582 64.3449 1.57582C61.1581 1.57582 58.228 2.8208 55.395 4.02258C54.6456 4.3453 53.8651 4.67343 53.1049 4.96914C50.1113 6.13446 45.9213 7.09723 42.9438 5.10553C42.3551 4.71259 41.8204 4.20487 41.2586 3.67015C40.5673 3.02065 39.8584 2.34144 38.9834 1.82293C37.5115 0.941173 35.636 0.563087 33.5605 0.723774C26.9427 1.24634 21.9425 6.5328 17.7754 11.4506C13.4693 16.5345 9.1294 21.1539 3.47971 21.844L3.38654 21.8521C2.87882 21.9142 2.24823 21.9884 1.69865 22.4138C0.675117 23.1902 0.518481 24.6674 1.29086 26.3715C4.43978 33.2959 11.3534 38.3339 19.0758 39.398C19.1541 39.5046 19.2635 39.5776 19.389 39.6167C19.8711 40.8603 20.3667 42.108 20.8555 43.3517C21.802 45.7539 22.5528 48.9082 20.765 50.2612C20.1641 50.7257 19.3256 50.9093 18.4411 51.1038C18.0455 51.1929 17.6404 51.2793 17.238 51.3995C15.5096 51.9113 13.8163 53.2602 13.9297 55.1426C13.9959 56.1688 14.5819 56.9722 15.1396 57.615C15.8067 58.3874 16.5358 59.0963 17.2461 59.7876C18.5113 61.0151 19.6996 62.1736 20.4895 63.6009C21.5954 65.6237 21.7912 67.9867 21.9951 70.4902C22.0681 71.4178 22.1477 72.3698 22.2747 73.3096C22.7756 76.9663 24.6863 81.1927 28.5374 82.0704C30.8815 82.6051 33.0407 81.7396 35.1282 80.897C36.5015 80.3474 37.7978 79.8208 39.1198 79.6885C39.5991 79.6372 39.9313 79.6763 40.119 79.8087C40.3688 79.9801 40.5214 80.4365 40.6456 80.897C40.8603 81.6694 41.0439 82.4836 41.2114 83.3762C38.666 84.8858 36.0843 86.621 34.0358 88.9529C30.9922 92.4232 29.7864 96.6767 30.8086 100.337C31.0193 101.091 31.3312 101.858 31.7768 102.723C30.7735 103.828 29.5906 104.845 28.3456 105.913C26.2945 107.676 24.1718 109.501 22.7783 111.868C21.7332 113.649 21.1471 115.669 20.6367 117.451C17.9753 126.681 14.956 137.137 16.6371 147.443C16.7654 148.219 16.918 149.007 17.0706 149.767C17.5931 152.426 18.0887 154.941 17.558 157.378C17.261 158.738 16.6533 160.014 16.0092 161.363C15.6028 162.221 15.1815 163.105 14.8399 164.026C12.8914 169.267 13.8163 174.683 14.9371 178.3C15.33 179.575 15.8215 180.882 16.4373 182.301C16.5169 182.485 16.6533 182.64 16.8275 182.745C19.0569 184.09 21.3348 185.338 23.6641 186.48C24.2961 186.792 24.9388 187.097 25.5802 187.389C37.3319 192.813 50.2098 195.644 63.1201 195.644C66.2339 195.644 69.3518 195.48 72.4535 195.148C73.612 195.024 74.7625 194.875 75.9103 194.704C76.6435 194.598 77.374 194.482 78.0991 194.353C92.1302 191.923 105.47 186.094 116.98 177.337C117.118 177.232 117.226 177.092 117.293 176.924C117.874 175.493 118.495 173.945 119.053 172.355C121.417 165.621 121.686 160.112 119.875 155.51Z" fill="#191919"/>
<path d="M25.8174 117.346C25.3286 116.929 23.8783 117.404 24.4279 118.114C26.1293 120.325 28.0697 122.328 29.3808 124.82C31.0458 127.99 30.8554 131.351 30.4206 134.799C29.5834 141.469 28.6152 148.121 27.7767 154.793C26.93 161.464 26.0793 168.139 25.2084 174.807C24.7884 178.019 24.3658 181.229 23.9526 184.437C23.9324 184.567 23.9175 184.695 23.9026 184.819C23.8324 185.369 23.7501 185.92 23.6636 186.48C24.2956 186.792 24.9383 187.097 25.5797 187.389C25.658 186.707 25.7364 186.025 25.8255 185.346C25.8444 185.17 25.8687 184.995 25.8957 184.823C26.3872 181.221 26.8787 177.622 27.3702 174.02C28.3425 166.943 29.3646 159.87 30.3288 152.789C30.8014 149.323 31.2618 145.852 31.725 142.382C32.2016 138.872 32.8795 135.321 33.0442 131.781C33.317 125.799 30.2302 121.132 25.8174 117.346ZM34.9158 103.804C34.3473 103.099 33.8747 102.33 33.3926 101.574C33.1172 101.153 32.8444 100.732 32.5473 100.327C32.2165 99.8742 31.1592 99.9512 31.2483 100.661C31.3347 101.356 31.5413 102.037 31.8492 102.69C32.1233 103.281 32.4825 103.851 32.8998 104.382C34.0583 105.855 35.6733 107.028 37.3045 107.606C37.6636 107.73 38.3847 107.325 37.9769 106.927C36.9264 105.917 35.8259 104.946 34.9158 103.804ZM39.6999 62.0021C37.8513 63.2579 36.0986 64.5326 33.8976 65.1092C31.9518 65.6196 30.0857 65.336 28.1305 65.4994C27.6795 65.5386 27.4053 66.0679 27.8199 66.3569C29.7157 67.7058 32.8174 67.3588 34.9279 66.8011C37.3463 66.1584 39.6959 64.8837 41.0394 62.7151C41.5269 61.9197 40.1658 61.6902 39.6999 62.0021ZM38.5224 68.5525C37.7501 69.1804 36.9763 69.8353 36.0487 70.2214C35.0954 70.6184 34.0853 70.4983 33.132 70.8142C32.8849 70.8993 32.6445 71.2355 32.8917 71.4691C33.7545 72.2915 35.3884 72.0228 36.4214 71.7068C37.7339 71.3017 39.0248 70.4739 39.5635 69.1561C39.8106 68.5525 38.9586 68.1892 38.5224 68.5525ZM34.215 45.0598C34.215 47.3337 35.1008 49.1809 36.1837 49.1809C37.2734 49.1809 38.1552 47.3337 38.1552 45.0598C38.1552 42.7791 37.2734 40.9346 36.1837 40.9346C35.1008 40.9346 34.215 42.7791 34.215 45.0598ZM61.9341 54.0826C62.3554 54.0393 62.6822 53.8962 63.0494 53.7045C63.2803 53.564 63.5018 53.4155 63.7205 53.2602C64.3214 53.4547 64.9264 53.6464 65.5273 53.8368C66.2294 54.8117 64.7076 56.2471 64.0244 56.7224C63.4478 57.1235 62.7915 57.4043 62.1798 57.7473C61.0132 58.4035 61.9449 59.5257 63.0265 59.1435C65.0087 58.4495 67.2165 56.9911 67.5325 54.7294C67.7742 53.0455 66.6467 51.4198 64.9304 51.201C63.807 51.0565 63.2722 51.8802 62.296 52.0355C62.0354 52.2691 61.98 52.207 62.1326 51.8518C62.2217 51.4035 62.3432 50.9674 62.5026 50.542C62.6984 49.9884 62.936 49.4429 63.2088 48.9244C63.9393 47.5282 64.9763 46.2184 66.1592 45.1773C66.9167 44.5062 67.8363 44.0079 68.3872 43.1424C68.579 42.8412 68.2117 42.6468 67.9659 42.6549C66.6467 42.6819 65.3598 43.3557 64.2161 44.3617C63.7638 44.7641 63.3344 45.2124 62.932 45.6917C61.4183 47.5133 60.3137 49.7859 59.9518 51.49C59.6507 52.924 60.2867 54.2419 61.9341 54.0826ZM56.4977 96.1352C52.2956 97.3896 47.8949 99.6015 45.0431 102.907C44.5664 103.454 44.133 104.035 43.7508 104.642C42.4329 106.751 41.7146 109.236 41.9374 112.113C42.0143 113.107 40.2792 113.524 40.0564 112.506C39.1652 108.511 40.5398 104.818 42.9906 101.847C43.5402 101.176 44.1492 100.537 44.7973 99.9444L44.0209 90.5746C43.8454 88.4452 43.6415 86.0363 43.2553 83.7164V83.7083C43.0487 82.4917 42.8151 81.4033 42.5383 80.3825C42.3114 79.5629 41.9954 78.7365 41.2379 78.2031C40.6451 77.7926 39.889 77.6414 38.9154 77.7467C37.3247 77.906 35.834 78.5029 34.3932 79.0835C32.5041 79.8437 30.719 80.5621 28.9744 80.1678C26.0942 79.5089 24.6278 76.0575 24.2105 73.0436C24.089 72.1591 24.0147 71.2315 23.9405 70.3308C23.7298 67.7328 23.5124 65.0471 22.1999 62.6651C21.2722 60.9759 19.9179 59.658 18.6081 58.3833C17.8978 57.6933 17.2294 57.0465 16.6177 56.3403C16.2694 55.9352 15.9115 55.4666 15.8845 55.0224C15.8373 54.2581 16.8054 53.564 17.7844 53.271C18.1233 53.1738 18.4852 53.0968 18.8606 53.0145C19.8639 52.7917 21.0035 52.5432 21.9514 51.8167C24.7128 49.7238 23.8702 45.6688 22.6725 42.6346C22.0878 41.1453 21.5018 39.6559 20.9171 38.1705C20.909 38.1503 20.9023 38.1354 20.8901 38.1192V38.1152C21.0764 37.4373 21.252 36.7554 21.4316 36.0721C28.2722 35.0162 35.0562 34.684 41.9293 36.0829C43.3727 36.376 44.7771 36.7392 46.1463 37.1686C45.9991 38.6647 45.7061 40.1433 45.2578 41.5746C44.6285 43.6177 42.9947 46.7099 45.5265 48.1723C47.6262 49.3848 49.9312 47.146 51.3868 45.8443C52.9437 44.4562 54.3291 42.8763 55.508 41.1574C56.8299 41.8704 58.133 42.6306 59.4293 43.43C59.2726 43.7068 59.1322 43.9877 58.9999 44.2685C58.796 44.706 59.4644 44.9315 59.729 44.6358C59.9167 44.4279 60.1112 44.2064 60.3178 43.9836C60.7904 43.457 61.3089 42.8966 61.8639 42.3619C64.127 40.1595 66.9748 38.284 69.9711 40.1514C72.7528 41.8744 73.6426 46.3358 73.7911 49.6373C73.8101 50.0546 73.8182 50.457 73.8141 50.827C73.8141 50.9012 73.8141 50.9714 73.8101 51.0457C73.7398 54.6632 72.4017 58.2658 69.5269 60.5937C66.4522 63.0891 61.9759 63.4672 58.5786 61.4093C57.9223 61.011 56.568 61.963 57.3687 62.5287C57.9885 62.9649 58.6407 63.3241 59.3226 63.6076C57.8751 65.0903 57.9183 67.5856 58.8432 69.3559C59.5022 70.6144 60.5757 71.5272 61.8436 72.0065C61.926 72.7398 62.0151 73.4649 62.1164 74.1859V74.194C62.4256 76.4477 62.8469 78.7446 63.3776 81.0023C63.3816 81.0172 63.3857 81.0293 63.3884 81.0455C62.9711 82.5768 62.6011 84.1256 62.1096 85.6339C61.2157 88.3682 60.0923 91.0189 58.7771 93.5764C59.4293 93.417 60.0842 93.2685 60.7391 93.124C61.0199 93.0619 61.3048 92.9998 61.5857 92.9377C63.6854 92.4732 65.8972 91.9506 67.6607 90.653C68.9921 89.6618 69.7254 88.3088 70.7516 87.053C70.919 86.8505 71.3093 86.8424 71.3687 87.1435C71.9021 89.7199 68.9651 91.9195 66.9896 92.9647C63.7638 94.6688 59.9626 95.1049 56.4977 96.1352ZM13.7159 30.3833C12.8895 26.3283 13.9158 22.3166 16.3531 19.0218C16.7987 18.4209 18.3313 18.7693 17.856 19.5984C16.0803 22.6838 15.2337 26.3405 15.8467 29.8769C16.1343 31.5729 16.746 33.1757 17.5913 34.6732C18.0194 35.4456 18.5932 36.1356 19.1239 36.8405C19.1401 36.7081 19.155 36.5704 19.1752 36.4381C19.2225 36.0829 19.2805 35.7305 19.3427 35.37C20.0259 31.4919 21.4842 27.6003 22.9561 24.0936C23.615 22.5232 24.3374 20.8191 25.1598 19.1352C25.4123 18.6046 25.6783 18.082 25.9632 17.5621C27.2204 15.1977 28.7138 12.9549 30.5408 11.2778C30.7784 11.0604 31.6561 11.0793 31.4576 11.5857C30.7082 13.5436 29.4646 15.3409 28.3992 17.1692C31.8384 16.7641 35.4329 16.9545 38.9437 17.5594C37.6879 16.3819 36.343 15.3125 34.9266 14.1701C34.5971 13.9149 35.0197 13.5855 35.3168 13.7002C37.6879 14.6076 39.9092 16.2105 41.8023 18.1441C42.5936 18.9516 43.3282 19.8239 43.9952 20.7259C44.8648 21.9074 45.6183 23.1483 46.2192 24.3785C47.9395 27.9001 48.7119 31.7863 48.5633 35.663C48.5363 36.4151 48.4742 37.1686 48.3729 37.9126C48.2676 38.7593 48.111 39.5978 47.9165 40.4323C47.5614 41.9298 46.6675 43.4853 46.519 44.9936C46.5311 45.2866 46.5433 45.5783 46.5581 45.8713C47.0307 46.5843 47.502 46.6275 47.9786 46.0077C48.4702 45.7809 48.9347 45.2785 49.3438 44.9275C50.975 43.5434 52.3955 41.9298 53.5932 40.1663C53.8619 39.7693 54.1239 39.3628 54.3737 38.9551C54.5411 38.6769 54.7018 38.392 54.8531 38.1125C56.6287 34.8677 57.6469 31.238 57.9048 27.549C57.9628 26.7253 57.9831 25.8949 57.9628 25.0725C57.952 24.3515 57.9088 23.6358 57.8345 22.9215C57.7211 21.8061 59.7466 21.2957 59.9302 22.4286C60.1638 23.8451 60.2692 25.2629 60.2421 26.6753C64.4983 29.8769 68.2009 33.8009 71.0851 38.315C71.1702 38.4514 71.2094 38.5797 71.2134 38.7079C74.4447 40.6348 75.5519 45.2124 75.845 48.838C78.3376 47.7577 80.5157 46.2683 82.1158 43.696C84.5423 39.7963 84.0116 35.7224 83.6754 31.3974C83.6133 30.5831 84.784 30.3792 85.2013 30.9572C88.1476 35.0108 86.5988 41.3167 83.8401 45.0719C82.0294 47.5403 79.083 49.8088 75.9233 50.6865C75.876 55.3113 73.9329 59.8416 69.9725 62.4653C67.0545 64.4003 63.4262 64.9647 60.1908 63.9317C59.9532 65.4913 59.5427 66.9415 60.3623 68.4552C60.6905 69.0588 61.128 69.5503 61.6465 69.9365C62.2474 70.3889 62.9455 70.7008 63.6949 70.8993C63.8583 70.9466 64.023 70.9817 64.1864 71.0168C65.1816 71.2234 64.6307 72.3495 63.8583 72.4008C63.9015 72.7789 63.9487 73.1449 63.9987 73.5162C65.1505 74.3615 66.3874 75.0447 67.6824 75.5592C68.7167 75.9724 69.8942 76.0345 70.5504 75.7226C70.8083 75.5943 70.9555 75.4309 71.0298 75.1852C71.1594 74.7639 70.9677 74.2211 70.7449 73.5932C70.4842 72.8653 70.1953 72.0309 70.3398 71.114C70.6517 69.1561 72.611 68.2905 74.0423 67.6518L74.2097 67.5775C78.1702 65.8194 81.4163 62.1263 82.899 57.7054C82.9341 57.6042 82.9813 57.5137 83.0435 57.4327C83.7105 54.9481 83.9603 52.4257 83.7105 49.6968C83.6754 49.2903 84.4478 49.1431 84.5572 49.5253C85.2404 51.9113 85.3768 54.4606 84.9163 56.8979C87.2699 56.4267 89.5006 54.8819 90.7024 52.82C92.6185 49.5442 92.9115 45.2704 91.6274 39.3669C89.3926 29.0775 84.3749 19.2919 77.117 11.0509C72.6609 6.00213 68.4979 3.54187 64.3889 3.52971C61.5884 3.51081 58.954 4.63832 56.1642 5.82389C55.3959 6.15066 54.6033 6.48689 53.816 6.78936C48.8996 8.7014 44.7636 8.68114 41.8563 6.72724C41.1312 6.23978 40.5101 5.6551 39.9133 5.08527C39.2719 4.48168 38.6669 3.9078 37.9837 3.50001C36.5645 2.65336 34.8793 2.58045 33.7086 2.66822C27.8482 3.13542 23.1843 8.09646 19.2724 12.7132C15.6131 17.0341 10.5981 22.9431 3.71958 23.7857L3.62236 23.7978C3.33744 23.833 3.01337 23.8681 2.88779 23.9653C2.65824 24.1408 2.74061 24.8281 3.07278 25.5681C5.61947 31.1719 10.8789 35.4213 16.9661 36.9971C15.2647 35.1796 14.1642 32.5559 13.7146 30.3833H13.7159ZM90.8415 141.758C85.9993 150.18 82.4642 159.39 79.9945 168.794C78.9291 165.933 77.8299 163.086 76.7753 160.232C74.5865 154.309 72.4017 148.387 70.2128 142.464C69.0975 139.442 67.9578 136.432 66.8182 133.417C65.8041 130.723 64.6185 127.99 64.4619 125.078C64.1648 119.546 67.2327 114.441 66.6008 108.877C66.5373 108.315 65.5813 108.455 65.5664 108.994C65.4138 114.578 62.5498 119.779 62.7915 125.382C62.9212 128.431 64.1229 131.308 65.137 134.146C66.2213 137.185 67.2948 140.221 68.3994 143.252C70.6031 149.306 72.8122 155.362 75.0159 161.417C76.3702 165.133 77.6611 168.884 79.0506 172.592C77.865 177.684 76.9833 182.855 76.4202 188.056C76.2528 189.604 76.1204 191.156 76.0192 192.712C75.9759 193.375 75.9368 194.041 75.9098 194.704C76.643 194.598 77.3735 194.482 78.0986 194.353C78.1337 193.687 78.181 193.016 78.231 192.349C78.3322 191.02 78.4497 189.686 78.5861 188.356C79.0033 184.243 79.6083 180.157 80.409 176.098C80.6197 174.995 80.8492 173.894 81.099 172.803C81.1463 172.6 81.1895 172.394 81.2394 172.19C83.6268 161.756 87.3766 151.818 91.7975 142.078C92.0595 141.504 91.1075 141.302 90.8415 141.758ZM96.3751 122.076C96.082 121.791 95.8093 121.479 95.5554 121.151C94.5332 119.818 93.8 118.172 92.9763 116.741C91.888 114.838 90.8023 112.932 89.7342 111.021C88.1463 108.187 86.5732 105.34 85.0244 102.483C84.8677 102.202 84.7165 101.921 84.5639 101.64C83.3149 101.372 82.055 101.153 80.756 101.04C76.8388 100.688 72.8702 101.035 69.0583 102.002C62.2109 103.746 56.6625 107.571 51.4179 112.159C51.133 112.405 50.2715 112.23 50.6023 111.77C54.7977 105.941 61.7423 102.019 68.5817 100.166C72.5003 99.1059 76.62 98.7508 80.6615 99.0127C81.5163 99.0667 82.3913 99.1451 83.2757 99.2544C83.6349 99.2922 83.9941 99.3395 84.3573 99.3949C87.2213 99.827 90.1042 100.603 92.4929 102.054C93.4327 102.63 92.4254 103.621 91.6179 103.426C89.7059 102.973 87.8492 102.428 85.9723 101.967C87.7277 104.774 89.4642 107.598 91.1858 110.432C92.3525 112.359 93.5111 114.285 94.6575 116.23C94.6926 116.285 94.7277 116.344 94.7587 116.398C95.3718 117.435 96.1171 118.492 96.7018 119.6C97.057 120.267 97.35 120.944 97.5215 121.655C97.666 122.25 96.691 122.384 96.3751 122.076Z" fill="white"/>
<path d="M34.2155 45.0598C34.2155 42.7791 35.1013 40.9346 36.1843 40.9346C37.274 40.9346 38.1557 42.7791 38.1557 45.0598C38.1557 47.3337 37.274 49.181 36.1843 49.181C35.1013 49.181 34.2155 47.3337 34.2155 45.0598ZM39.5641 69.1561C39.0253 70.474 37.7344 71.3017 36.4219 71.7068C35.3889 72.0228 33.7551 72.2915 32.8922 71.4691C32.6451 71.2355 32.8855 70.8993 33.1326 70.8142C34.0859 70.4983 35.0959 70.6185 36.0492 70.2215C36.9769 69.8353 37.7506 69.1804 38.523 68.5525C38.9592 68.1892 39.8112 68.5525 39.5641 69.1561ZM41.04 62.7151C39.6964 64.8837 37.3469 66.1584 34.9285 66.8011C32.818 67.3588 29.7163 67.7058 27.8205 66.3569C27.4059 66.0679 27.68 65.5386 28.131 65.4994C30.0863 65.336 31.9524 65.6196 33.8982 65.1092C36.0992 64.5326 37.8519 63.2579 39.7005 62.0021C40.1663 61.6902 41.5275 61.9198 41.04 62.7151ZM59.9524 51.49C60.3143 49.7859 61.4188 47.5133 62.9325 45.6918C63.3349 45.2124 63.7643 44.7641 64.2167 44.3617C65.3604 43.3557 66.6472 42.6819 67.9665 42.6549C68.2122 42.6468 68.5795 42.8413 68.3878 43.1424C67.8369 44.0079 66.9173 44.5062 66.1598 45.1773C64.9769 46.2184 63.9399 47.5282 63.2094 48.9244C62.9366 49.4429 62.6989 49.9884 62.5031 50.5421C62.3438 50.9674 62.2223 51.4036 62.1332 51.8519C61.9806 52.207 62.0359 52.2691 62.2965 52.0355C63.2728 51.8802 63.8075 51.0565 64.931 51.201C66.6472 51.4198 67.7747 53.0455 67.533 54.7294C67.2171 56.9911 65.0093 58.4495 63.0271 59.1435C61.9455 59.5257 61.0137 58.4036 62.1804 57.7473C62.7921 57.4043 63.4484 57.1235 64.0249 56.7224C64.7082 56.2471 66.23 54.8117 65.5278 53.8368C64.9269 53.6464 64.322 53.4547 63.7211 53.2602C63.5024 53.4155 63.2796 53.5641 63.05 53.7045C62.6827 53.8962 62.356 54.0394 61.9347 54.0826C60.2873 54.2433 59.6513 52.9254 59.9524 51.49ZM89.7348 111.021C88.1468 108.187 86.5737 105.34 85.0249 102.483C84.8683 102.202 84.7171 101.921 84.5645 101.64C83.3154 101.372 82.0556 101.153 80.7566 101.04C76.8394 100.688 72.8708 101.035 69.0589 102.002C62.2115 103.746 56.6631 107.571 51.4185 112.159C51.1335 112.405 50.272 112.23 50.6029 111.77C54.7983 105.941 61.7429 102.019 68.5822 100.166C72.5008 99.1059 76.6206 98.7508 80.6621 99.0127C81.5168 99.0667 82.3918 99.1451 83.2763 99.2544C83.6355 99.2923 83.9946 99.3395 84.3579 99.3949C87.2219 99.827 90.1048 100.603 92.4935 102.054C93.4333 102.63 92.426 103.621 91.6185 103.426C89.7065 102.973 87.8498 102.428 85.9728 101.967C87.7282 104.775 89.4647 107.598 91.1864 110.432C92.3531 112.359 93.5116 114.285 94.658 116.231C94.6931 116.285 94.7282 116.344 94.7593 116.398C95.3723 117.435 96.1177 118.492 96.7024 119.6C97.0575 120.267 97.3505 120.944 97.522 121.655C97.6665 122.25 96.6916 122.384 96.3756 122.076C96.0826 121.791 95.8098 121.479 95.556 121.151C94.5338 119.818 93.8006 118.172 92.9769 116.741C91.8885 114.838 90.8029 112.932 89.7348 111.021ZM32.9003 104.382C32.4831 103.851 32.1253 103.281 31.8511 102.69C31.5433 102.037 31.3353 101.356 31.2503 100.661C31.1598 99.9512 32.2184 99.8742 32.5492 100.327C32.8463 100.732 33.1191 101.153 33.3932 101.574C33.8766 102.33 34.3492 103.099 34.9177 103.804C35.8278 104.946 36.9269 105.917 37.9775 106.927C38.3866 107.325 37.6656 107.73 37.305 107.606C35.6752 107.028 34.0589 105.855 32.9003 104.382ZM38.9173 77.7467C37.3253 77.9061 35.8345 78.5029 34.3951 79.0835C32.506 79.8438 30.7196 80.5621 28.9763 80.1678C26.0961 79.5089 24.6297 76.0575 24.2111 73.0436C24.0896 72.1592 24.0166 71.2315 23.9424 70.3308C23.7317 67.7328 23.5143 65.0471 22.2018 62.6651C21.2728 60.9759 19.9198 59.658 18.6087 58.3833C17.8984 57.6933 17.2313 57.0465 16.6183 56.3403C16.2713 55.9352 15.9134 55.4666 15.8851 55.0224C15.8378 54.2581 16.806 53.5641 17.7863 53.271C18.1239 53.1738 18.4871 53.0968 18.8625 53.0145C19.8645 52.7917 21.0055 52.5432 21.9534 51.8168C24.7148 49.7238 23.8722 45.6688 22.6744 42.6347C22.0884 41.1453 21.5037 39.6559 20.9177 38.1705C20.9109 38.1503 20.9028 38.1354 20.8907 38.1192V38.1152C21.0784 37.4373 21.2539 36.7554 21.4335 36.0722C28.2728 35.0162 35.0581 34.684 41.9298 36.083C43.3747 36.376 44.779 36.7392 46.1482 37.1686C45.9997 38.6647 45.708 40.1433 45.2584 41.5747C44.6305 43.6177 42.9952 46.7099 45.5284 48.1723C47.6268 49.3848 49.9331 47.146 51.3887 45.8443C52.9457 44.4562 54.3297 42.8764 55.5085 41.1574C56.8318 41.8704 58.1349 42.6306 59.4298 43.43C59.2746 43.7068 59.1328 43.9877 59.0004 44.2685C58.7979 44.7047 59.4649 44.9315 59.731 44.6358C59.9173 44.4279 60.1131 44.2064 60.3197 43.9836C60.7923 43.457 61.3108 42.8966 61.8644 42.3619C64.1276 40.1595 66.9754 38.284 69.973 40.1514C72.7547 41.8744 73.6445 46.3359 73.7931 49.6374C73.812 50.0546 73.8201 50.457 73.816 50.827C73.816 50.9012 73.816 50.9715 73.812 51.0457C73.7418 54.6632 72.4036 58.2658 69.5274 60.5938C66.4528 63.0891 61.9779 63.4672 58.5791 61.4093C57.9242 61.011 56.5699 61.963 57.3693 62.5288C57.9904 62.9649 58.6413 63.3241 59.3245 63.6077C57.877 65.0903 57.9202 67.5857 58.8452 69.3559C59.5041 70.6144 60.5776 71.5272 61.8455 72.0066C61.9266 72.7398 62.017 73.4649 62.1183 74.186V74.1941C62.4262 76.4477 62.8475 78.7446 63.3781 81.0023C63.3822 81.0172 63.3862 81.0293 63.3903 81.0455C62.973 82.5768 62.6017 84.1256 62.1102 85.6339C61.2176 88.3669 60.0928 91.0189 58.779 93.5764C59.4298 93.4171 60.0861 93.2685 60.741 93.124C61.0219 93.0619 61.3068 92.9998 61.5876 92.9377C63.6874 92.4732 65.8992 91.9506 67.6627 90.653C68.9927 89.6618 69.7273 88.3088 70.7535 87.0531C70.921 86.8505 71.3112 86.8424 71.3693 87.1435C71.904 89.7199 68.9657 91.9196 66.9916 92.9647C63.7643 94.6688 59.9646 95.1049 56.4997 96.1352C52.2975 97.3897 47.8969 99.6015 45.0437 102.907C44.5683 103.453 44.1349 104.035 43.7528 104.642C42.4335 106.751 41.7165 109.236 41.9379 112.113C42.0163 113.107 40.2798 113.525 40.057 112.506C39.1671 108.511 40.5417 104.818 42.9912 101.847C43.5421 101.176 44.1511 100.537 44.7979 99.9445L44.0215 90.5747C43.8459 88.4452 43.6434 86.0363 43.2572 83.7164V83.7083C43.0506 82.4917 42.8156 81.4034 42.5388 80.3825C42.3133 79.5629 41.9974 78.7365 41.2398 78.2031C40.647 77.7926 39.8895 77.6414 38.9173 77.7467ZM19.3419 35.3713C19.2798 35.7305 19.2217 36.0843 19.1744 36.4394C19.1542 36.5704 19.1393 36.7081 19.1245 36.8405C18.5925 36.1356 18.0186 35.4456 17.5905 34.6732C16.7466 33.1757 16.1335 31.5743 15.8459 29.8769C15.2329 26.3405 16.0809 22.6838 17.8565 19.5997C18.3319 18.7693 16.7979 18.4223 16.3537 19.0218C13.915 22.3166 12.8888 26.3283 13.7151 30.3847C14.1648 32.556 15.2653 35.181 16.9667 36.9971C10.8781 35.4213 5.6187 31.1719 3.07202 25.5681C2.73984 24.8281 2.65747 24.1408 2.88702 23.9666C3.0126 23.8681 3.33668 23.833 3.62294 23.7992L3.72016 23.7857C10.5986 22.9445 15.6123 17.0342 19.2717 12.7132C23.1849 8.09646 27.8488 3.13678 33.7092 2.66822C34.8785 2.58045 36.5651 2.65337 37.9842 3.50001C38.6661 3.90915 39.2711 4.48303 39.9138 5.08527C40.5107 5.6551 41.1305 6.23978 41.8569 6.72725C44.7628 8.68249 48.8988 8.7014 53.8153 6.78936C54.6038 6.48689 55.3951 6.15066 56.1634 5.82524C58.9545 4.63832 61.5876 3.51081 64.3895 3.53107C68.4972 3.54322 72.6602 6.00213 77.1162 11.0523C84.3741 19.2919 89.3918 29.0776 91.6279 39.3669C92.9107 45.2718 92.6191 49.5442 90.703 52.82C89.5012 54.882 87.2691 56.4267 84.9169 56.898C85.3774 54.462 85.2396 51.9113 84.5577 49.5253C84.4483 49.1431 83.676 49.2917 83.7111 49.6968C83.9609 52.4257 83.7111 54.9481 83.044 57.4327C82.9806 57.5137 82.9347 57.6042 82.8995 57.7055C81.4169 62.1264 78.1708 65.8195 74.2103 67.5776L74.0415 67.6518C72.6102 68.2919 70.6509 69.1574 70.339 71.114C70.1945 72.0309 70.4835 72.8654 70.7454 73.5945C70.9669 74.2224 71.1586 74.7639 71.0303 75.1852C70.9561 75.431 70.8075 75.5943 70.5496 75.7226C69.8947 76.0345 68.7159 75.9724 67.6816 75.5592C66.3866 75.0448 65.1497 74.3629 63.9993 73.5162C63.948 73.1462 63.9007 72.7789 63.8588 72.4009C64.6312 72.3509 65.1808 71.2234 64.1856 71.0168C64.0222 70.9817 63.8588 70.9466 63.6941 70.9007C62.946 70.7008 62.2466 70.3889 61.6457 69.9365C61.1272 69.5504 60.6897 69.0602 60.3629 68.4553C59.5433 66.9429 59.9524 65.4913 60.1901 63.9317C63.4254 64.9661 67.0537 64.4003 69.973 62.4666C73.9322 59.8416 75.8752 55.3114 75.9225 50.6865C79.0836 49.8102 82.0286 47.5403 83.8394 45.072C86.598 41.3181 88.1468 35.0108 85.2005 30.9572C84.7832 30.3793 83.6125 30.5845 83.676 31.3974C84.0108 35.7224 84.5415 39.7963 82.115 43.696C80.5149 46.2697 78.3382 47.7591 75.8442 48.8393C75.5525 45.2124 74.4439 40.6348 71.2126 38.708C71.2099 38.5797 71.1708 38.4527 71.0844 38.315C68.2014 33.8009 64.4989 29.8769 60.2414 26.6754C60.2684 25.2643 60.1631 23.8465 59.9295 22.43C59.7458 21.2957 57.7203 21.8061 57.8338 22.9215C57.908 23.6358 57.9512 24.3515 57.9634 25.0739C57.9823 25.8962 57.9634 26.7253 57.904 27.5504C57.6474 31.2394 56.6279 34.8677 54.8536 38.1125C54.7011 38.3933 54.5404 38.6782 54.3729 38.9551C54.1231 39.3629 53.8625 39.7693 53.5925 40.1676C52.3947 41.9298 50.9742 43.5434 49.3444 44.9275C48.9339 45.2786 48.4694 45.7822 47.9779 46.0077C47.5026 46.6275 47.03 46.5857 46.5573 45.8713C46.5425 45.5797 46.5303 45.2867 46.5195 44.995C46.6667 43.4854 47.5606 41.9298 47.9158 40.4323C48.1102 39.5978 48.2668 38.7606 48.3722 37.9126C48.4734 37.1686 48.5355 36.4165 48.5639 35.663C48.7111 31.7876 47.9387 27.9001 46.2184 24.3785C45.6175 23.1483 44.8641 21.9088 43.9945 20.7272C43.3274 19.8252 42.5942 18.9516 41.8016 18.1455C39.9098 16.2105 37.6885 14.6076 35.316 13.7002C35.019 13.5868 34.5977 13.9149 34.9258 14.1715C36.3423 15.3139 37.6885 16.3833 38.9443 17.5608C35.4322 16.9558 31.839 16.7654 28.3984 17.1705C29.4638 15.3409 30.7074 13.5436 31.4582 11.587C31.6553 11.0793 30.7776 11.0617 30.54 11.2791C28.7144 12.9562 27.2209 15.1977 25.9638 17.5635C25.6775 18.082 25.4129 18.6046 25.1604 19.1352C24.3367 20.8191 23.6143 22.5232 22.9567 24.0936C21.4835 27.6003 20.0251 31.4919 19.3419 35.3713ZM119.875 155.51C118.803 152.777 117.004 150.461 115.264 148.215L114.901 147.743C108.088 138.924 102.04 129.428 96.9022 119.498C96.6322 118.98 96.3675 118.461 96.1015 117.939C96.4566 116.898 96.9374 115.888 97.4397 114.828C98.3849 112.851 99.3598 110.806 99.4692 108.503C99.6258 105.204 97.9244 101.73 94.6783 98.7157C93.3712 97.5031 91.9385 96.435 90.5504 95.4061C89.196 94.396 87.7958 93.3549 86.5616 92.2085C85.0681 90.8204 83.7327 89.1946 82.4377 87.6229C81.6964 86.7141 80.924 85.7784 80.1247 84.8858C77.2566 81.6964 74.5871 79.8249 71.7271 79.0052C69.7178 78.4246 67.5884 78.4637 65.7223 79.0727C65.4806 79.1457 65.2429 79.2361 65.0093 79.3333C64.8837 78.7635 64.7703 78.1869 64.6609 77.6144C64.5597 77.1148 64.4705 76.6152 64.3882 76.1169C65.2159 76.6044 66.0734 77.0257 66.9592 77.3794C68.138 77.844 70.0068 78.1518 71.4003 77.4807C72.1484 77.1188 72.6683 76.522 72.8978 75.7577C73.2138 74.7207 72.883 73.7768 72.5899 72.9464C72.3914 72.3806 72.2038 71.8513 72.2699 71.4259C72.4144 70.5131 73.7012 69.9446 74.8328 69.4369L75.0016 69.3627C79.3361 67.4371 82.7807 63.659 84.5375 58.9369C87.6972 58.5507 90.7921 56.5509 92.3909 53.8058C94.573 50.0816 94.9348 45.3609 93.5346 38.9551C91.2282 28.3416 86.0633 18.2454 78.5826 9.75734C73.7364 4.26833 69.094 1.59337 64.3963 1.57582C64.3801 1.57582 64.3612 1.57582 64.345 1.57582C61.1582 1.57582 58.2281 2.8208 55.3951 4.02258C54.6457 4.3453 53.8652 4.67343 53.105 4.96914C50.1114 6.13446 45.9214 7.09723 42.9439 5.10553C42.3552 4.71259 41.8205 4.20487 41.2587 3.67015C40.5674 3.02065 39.8585 2.34144 38.9835 1.82293C37.5116 0.941173 35.6361 0.563087 33.5606 0.723774C26.9428 1.24634 21.9426 6.5328 17.7755 11.4506C13.4694 16.5345 9.1295 21.1539 3.47981 21.844L3.38664 21.8521C2.87892 21.9142 2.24833 21.9884 1.6974 22.4138C0.675219 23.1902 0.518582 24.6674 1.29096 26.3715C4.43988 33.2959 11.3535 38.3339 19.0759 39.398C19.1542 39.5046 19.2636 39.5776 19.3891 39.6167C19.8712 40.8603 20.3668 42.108 20.8556 43.3517C21.8021 45.7539 22.5529 48.9082 20.7651 50.2612C20.1642 50.7257 19.3257 50.9093 18.4412 51.1038C18.0456 51.1929 17.6405 51.2793 17.2381 51.3995C15.5097 51.9113 13.8164 53.2602 13.9298 55.1426C13.996 56.1688 14.582 56.9722 15.1397 57.615C15.8068 58.3874 16.5359 59.0963 17.2462 59.7876C18.5114 61.0151 19.6997 62.1736 20.4896 63.6009C21.5955 65.6237 21.7913 67.9867 21.9952 70.4902C22.0682 71.4178 22.1478 72.3698 22.2748 73.3096C22.7757 76.9663 24.6864 81.1927 28.5375 82.0704C30.8816 82.6051 33.0408 81.7396 35.1283 80.897C36.5016 80.3474 37.7979 79.8208 39.1199 79.6885C39.5992 79.6372 39.9314 79.6763 40.1191 79.8087C40.3689 79.9801 40.5215 80.4365 40.6457 80.897C40.8604 81.6694 41.044 82.4836 41.2115 83.3762C38.6661 84.8858 36.0844 86.621 34.0359 88.9529C30.9923 92.4232 29.7865 96.6767 30.8087 100.337C31.0194 101.091 31.3313 101.858 31.7769 102.723C30.7736 103.828 29.5907 104.845 28.3457 105.913C26.2946 107.676 24.1719 109.501 22.7784 111.868C21.7333 113.649 21.1472 115.669 20.6368 117.451C17.9754 126.681 14.9561 137.137 16.6372 147.443C16.7655 148.219 16.9181 149.007 17.0707 149.767C17.5932 152.426 18.0888 154.941 17.5581 157.378C17.2611 158.738 16.6534 160.014 16.0093 161.363C15.6029 162.221 15.1816 163.105 14.8386 164.026C12.8915 169.267 13.8164 174.683 14.9372 178.3C15.3301 179.575 15.8216 180.882 16.4374 182.301C16.517 182.485 16.6534 182.64 16.8276 182.745C19.057 184.09 21.3349 185.338 23.6642 186.48C23.7506 185.92 23.833 185.369 23.9032 184.819C23.9181 184.695 23.9329 184.567 23.9532 184.437C24.3664 181.229 24.789 178.019 25.209 174.807C26.0799 168.139 26.9306 161.465 27.7773 154.793C28.6158 148.121 29.584 141.469 30.4212 134.799C30.856 131.351 31.0464 127.99 29.3814 124.82C28.0703 122.329 26.1299 120.325 24.4285 118.114C23.8789 117.404 25.3291 116.929 25.818 117.346C30.2308 121.132 33.3176 125.799 33.0448 131.781C32.8801 135.321 32.2022 138.872 31.7256 142.382C31.2624 145.852 30.802 149.323 30.3293 152.789C29.3652 159.87 28.343 166.943 27.3708 174.02C26.8793 177.622 26.3878 181.221 25.8963 184.824C25.8693 184.995 25.845 185.171 25.8261 185.346C25.7369 186.024 25.6586 186.707 25.5803 187.389C37.332 192.813 50.2099 195.644 63.1202 195.644C66.234 195.644 69.3519 195.48 72.4536 195.148C73.6121 195.024 74.7626 194.875 75.9103 194.704C75.9374 194.041 75.9765 193.375 76.0197 192.712C76.121 191.155 76.2533 189.604 76.4221 188.056C76.9838 182.855 77.8656 177.684 79.0512 172.592C77.6617 168.884 76.3708 165.133 75.0164 161.417C72.8127 155.362 70.6036 149.306 68.3999 143.252C67.2954 140.221 66.2219 137.185 65.1376 134.146C64.1235 131.308 62.9217 128.431 62.7921 125.382C62.5504 119.779 65.4144 114.578 65.567 108.994C65.5818 108.455 66.5379 108.315 66.6013 108.877C67.2333 114.441 64.1654 119.544 64.4624 125.078C64.6191 127.99 65.8046 130.723 66.8187 133.417C67.9584 136.431 69.098 139.442 70.2134 142.464C72.4023 148.387 74.5871 154.309 76.7759 160.232C77.8305 163.086 78.9296 165.933 79.995 168.794C82.4647 159.389 85.9999 150.18 90.8421 141.758C91.1081 141.302 92.06 141.504 91.7981 142.078C87.3772 151.818 83.6287 161.756 81.24 172.19C81.1901 172.394 81.1468 172.601 81.0996 172.803C80.8498 173.894 80.6202 174.995 80.4096 176.098C79.6088 180.157 79.0039 184.243 78.5867 188.356C78.4503 189.686 78.3328 191.019 78.2315 192.349C78.1816 193.016 78.1343 193.687 78.0992 194.353C92.1303 191.923 105.47 186.094 116.98 177.337C117.116 177.232 117.226 177.092 117.293 176.924C117.874 175.493 118.494 173.945 119.053 172.355C121.417 165.621 121.686 160.112 119.875 155.51Z" fill="#191919"/>
</svg>
